<svg width="48" height="48" viewBox="0 0 48 48" fill="none" xmlns="http://www.w3.org/2000/svg">
<g clip-path="url(#clip0_2291_1097)">
<path fill-rule="evenodd" clip-rule="evenodd" d="M48 24C48 37.2548 37.2548 48 24 48C10.7452 48 0 37.2548 0 24C0 10.7452 10.7452 0 24 0C37.2548 0 48 10.7452 48 24ZM24 47.7884C37.138 47.7884 47.7884 37.138 47.7884 24C47.7884 10.862 37.138 0.211593 24 0.211593C10.862 0.211593 0.211593 10.862 0.211593 24C0.211593 37.138 10.862 47.7884 24 47.7884Z" fill="#3C82D7"/>
<path d="M24.0312 47.7886H24.3584C37.3456 47.6135 47.8196 37.0311 47.8196 24.0024C47.8196 10.9086 37.2408 0.285711 24.1638 0.21431C24.1197 0.213884 24.0755 0.213673 24.0312 0.213673C17.0305 0.213672 11.3553 5.53867 11.3553 12.1074C11.3553 18.6761 17.0304 24.001 24.0311 24.0011C31.0318 24.0011 36.7071 29.3261 36.7071 35.8948C36.7071 42.4636 31.0319 47.7886 24.0312 47.7886Z" fill="#3C82D7"/>
<path fill-rule="evenodd" clip-rule="evenodd" d="M27.9821 28.014C27.958 28.0244 27.8298 28.034 27.6972 28.0354C27.5646 28.0367 27.4117 28.0472 27.3575 28.0586C27.3033 28.07 27.0567 28.0889 26.8096 28.1006C26.1716 28.1306 26.0005 28.18 25.7492 28.4068C25.6996 28.4515 25.5984 28.5341 25.5243 28.5903C25.2982 28.7618 25.2296 28.8578 25.0814 29.2098C24.9321 29.5642 24.7331 29.8492 24.533 29.9949C24.3455 30.1314 24.2892 30.1216 24.1676 29.9315C23.9339 29.566 23.492 29.5799 23.461 29.9537C23.4384 30.226 23.6678 30.4959 24.1886 30.8099C24.3738 30.9216 24.3458 30.9411 24.0128 30.9321C23.7323 30.9246 23.7198 30.9263 23.4977 31.0014C23.3725 31.0437 23.1927 31.094 23.098 31.1132C22.9887 31.1353 22.9037 31.1666 22.8653 31.1989C22.8073 31.2477 22.7723 31.2639 22.6023 31.32C22.3991 31.3871 22.1824 31.5512 21.9009 31.8508C21.5837 32.1885 21.5583 32.2365 21.4957 32.6155C21.4643 32.8056 21.438 32.8843 21.3421 33.0758C21.277 33.2056 21.21 33.3787 21.189 33.4711C21.1091 33.8226 21.0422 33.9198 20.706 34.1725C19.8281 34.8322 20.3254 35.4949 21.4228 35.1277C21.7817 35.0076 21.7689 35.0082 21.9948 35.1008C22.0935 35.1413 22.1994 35.1804 22.2301 35.1878C22.3476 35.2159 22.5563 35.3622 22.6498 35.482C22.7017 35.5486 22.7859 35.6511 22.8369 35.7098C23.1132 36.0281 23.1741 36.3912 23.0084 36.7317C22.9549 36.8417 22.8902 37.0037 22.8647 37.0917C22.788 37.3567 22.7584 37.4163 22.5958 37.6336C22.3479 37.9649 22.2753 38.0238 21.8347 38.2511C21.6779 38.332 21.2268 38.3545 21.1109 38.2872C20.8645 38.1442 20.6769 38.1465 20.6258 38.2931C20.6127 38.3307 20.5622 38.3828 20.5002 38.4226C20.4432 38.4591 20.3733 38.5139 20.3447 38.5443C20.2779 38.6154 20.2307 38.6135 20.0728 38.5335C19.7538 38.3717 19.5882 38.5291 19.815 38.7785C20.0115 38.9946 20.01 39.0134 19.7785 39.2503C19.6937 39.337 19.598 39.453 19.5658 39.508C19.5025 39.6159 19.4451 39.6437 19.3316 39.621C18.6915 39.4929 18.6133 40.0115 19.2376 40.2451C19.4566 40.327 19.4583 40.3456 19.2878 40.7845C19.1879 41.0417 19.1834 41.0468 19.0331 41.0753C18.7178 41.1351 18.4645 41.3856 18.5227 41.5801C18.5747 41.7536 18.6673 41.8044 19.0663 41.8782C19.2149 41.9057 19.1152 42.3518 18.9409 42.4398C18.7372 42.5426 18.621 42.6656 18.5402 42.8639C18.5062 42.9473 18.4674 43.0418 18.4539 43.0739C18.4009 43.2006 18.5694 43.4844 18.7006 43.4894C18.8223 43.494 18.985 43.454 19.1768 43.3723C19.4127 43.2718 19.44 43.2727 19.4984 43.3838C19.5225 43.4295 19.625 43.5626 19.7262 43.6795C19.8274 43.7965 19.9295 43.9297 19.9529 43.9755C19.9764 44.0213 20.0724 44.1347 20.1662 44.2275C20.26 44.3204 20.3587 44.4359 20.3855 44.4844C20.4526 44.6053 20.5551 44.669 20.7786 44.7287C20.8833 44.7566 20.9936 44.7992 21.0237 44.8232C21.0539 44.8472 21.1574 44.9212 21.2539 44.9876C21.3503 45.054 21.464 45.1379 21.5065 45.1741C21.5627 45.2219 21.6346 45.2514 21.7695 45.2822C21.8716 45.3055 22.0193 45.3514 22.0976 45.3844C22.2496 45.4482 22.4293 45.4619 22.6586 45.4273C22.7628 45.4116 22.7874 45.418 23.0207 45.5213C23.3842 45.6822 23.5826 45.7101 23.9898 45.6576C24.1639 45.6352 24.5164 45.4195 24.6466 45.2557C24.8405 45.0119 24.8784 45.0015 24.9365 45.1765C24.9819 45.3134 25.0394 45.3489 25.1192 45.2893C25.224 45.2111 25.3841 44.9671 25.4054 44.8532C25.4167 44.7928 25.4425 44.7352 25.4654 44.7194C25.6445 44.5953 25.7116 44.5345 25.7686 44.4449C25.8413 44.3305 25.9036 44.3024 26.1389 44.2781C26.366 44.2547 26.5338 43.7923 26.426 43.4868C26.3189 43.183 26.4454 42.7465 26.6043 42.8715C26.7562 42.9909 26.8519 42.8897 26.7944 42.6705C26.7633 42.5519 26.7607 42.5024 26.7797 42.3876C26.7972 42.2818 26.7959 42.2227 26.7743 42.1406C26.7366 41.9979 26.7545 41.738 26.8213 41.4595C26.8669 41.2691 26.871 41.2206 26.8523 41.0896C26.8238 40.8892 26.826 40.8875 27.1223 40.8691C27.7487 40.8302 27.9765 40.1775 27.3636 40.1775C27.1028 40.1775 27.0196 40.1123 26.9958 39.8895C26.9803 39.744 26.9803 39.744 27.0859 39.6703C27.2863 39.5305 27.5497 39.2511 27.5668 39.1604C27.6097 38.9315 27.4185 38.8691 27.1873 39.0366C26.9654 39.1973 26.8972 39.2011 26.8972 39.0528C26.8972 38.9829 26.8797 38.9306 26.8328 38.8608C26.7683 38.7647 26.7683 38.7647 26.8328 38.6521C26.9818 38.3917 26.837 38.2048 26.578 38.3234C26.4286 38.3918 26.4152 38.3925 26.3055 38.3365C26.2054 38.2854 26.0797 38.2811 25.7575 38.3178C25.5686 38.3393 25.5185 38.3378 25.4115 38.3079C25.3427 38.2887 25.1977 38.2516 25.0892 38.2255C24.8557 38.1695 24.8054 38.1456 24.643 38.0133C24.5755 37.9582 24.4361 37.8734 24.3335 37.8248C23.8887 37.6143 23.816 37.4799 23.8036 36.8455C23.7961 36.4627 23.7961 36.4627 23.9167 36.2877C23.983 36.1915 24.0668 36.0585 24.1029 35.9922C24.1595 35.8887 24.191 35.8594 24.3277 35.7837C24.4152 35.7353 24.5497 35.6418 24.6268 35.576C24.7862 35.4397 24.8677 35.4038 25.0234 35.4014C25.0837 35.4004 25.2464 35.3711 25.385 35.3363C25.65 35.2698 26.0547 35.2675 26.2969 35.3311C26.3438 35.3434 26.4463 35.3599 26.5247 35.3676C26.7456 35.3893 26.8082 35.4172 26.9402 35.5531C27.0886 35.7058 27.4203 35.9151 27.5657 35.9477C27.9182 36.0266 28.544 35.7821 28.7531 35.4836C28.8192 35.3894 28.9167 35.2811 28.9698 35.2429C29.0603 35.1779 29.0824 35.144 29.1793 34.9207C29.1975 34.8787 29.2863 34.7839 29.3854 34.7006C29.8623 34.2996 29.6942 33.8269 29.0294 33.6997C28.9025 33.6754 28.8304 33.6457 28.719 33.5717C28.639 33.5187 28.5016 33.4536 28.4129 33.4267C28.2271 33.3704 28.0532 33.1559 28.213 33.1801C28.3181 33.1961 28.7641 33.3722 28.9767 33.4817C29.2 33.5968 29.2448 33.6118 29.404 33.6255C29.5019 33.6339 29.6097 33.6519 29.6437 33.6655C29.6776 33.6792 29.7368 33.6905 29.7752 33.6908C29.8135 33.6911 29.9042 33.7163 29.9765 33.747C30.4344 33.9406 30.9059 33.9337 31.0973 33.7305C31.2309 33.5887 31.2919 33.4096 31.2312 33.3373C31.1666 33.2603 31.1165 33.2435 30.908 33.229C30.5551 33.2046 30.5044 33.155 30.4793 32.8103C30.4585 32.5251 30.4713 32.4762 30.6131 32.2983C30.8358 32.0188 31.1271 31.3666 31.1271 31.1475C31.1271 31.0913 31.1481 30.9871 31.1739 30.9159C31.3326 30.4769 31.1987 30.0202 30.7537 29.4824C30.7088 29.4282 30.6339 29.3278 30.5873 29.2594C30.4824 29.1057 30.1934 28.7236 30.126 28.6496C30.0986 28.6195 30.0587 28.573 30.0372 28.5463C29.9894 28.4866 29.5768 28.3866 29.3785 28.3866C29.2707 28.3866 29.2248 28.3734 29.1085 28.3089C28.5905 28.0217 28.2013 27.9198 27.9821 28.014ZM20.2908 29.5916C20.1845 29.6123 20.1119 29.6918 20.0786 29.824C20.0495 29.9395 20.0219 29.9576 19.8343 29.9842C19.3236 30.0565 19.3471 30.6008 19.8785 31.0062C20.0533 31.1395 20.0509 31.1618 19.8477 31.2918C19.654 31.4157 19.601 31.6397 19.723 31.8189C19.905 32.0862 19.8748 32.2681 19.6466 32.2783C19.2512 32.2961 19.2057 32.7103 19.5519 33.1405C19.6784 33.2978 19.6866 33.3355 19.6156 33.4349C19.5502 33.5267 19.5502 33.7088 19.6158 33.941C19.6495 34.0604 19.6649 34.1745 19.6649 34.3046C19.6649 34.4373 19.6781 34.5327 19.7088 34.6217C19.7699 34.7992 19.765 34.8364 19.6619 34.9826C19.4677 35.258 19.5788 35.6628 19.8486 35.6628C20.004 35.6628 20.0263 35.5973 20.0291 35.1332C20.0312 34.7883 20.0386 34.6931 20.0688 34.6217C20.0892 34.5735 20.1197 34.4554 20.1365 34.3593C20.1777 34.1243 20.2819 33.9713 20.4667 33.8742C20.8402 33.6779 20.9443 33.5756 21.1 33.252C21.1203 33.2098 21.1607 33.1313 21.1899 33.0775C21.2191 33.0237 21.2429 32.9547 21.243 32.9241C21.243 32.8935 21.274 32.8096 21.3119 32.7377C21.3715 32.6247 21.3829 32.5756 21.3963 32.3761C21.4217 31.9968 21.5288 31.7958 21.8083 31.6024C21.8963 31.5415 21.9781 31.4735 21.99 31.4513C22.0652 31.3107 22.4061 31.1292 22.6832 31.0823C22.7461 31.0716 22.8342 31.038 22.8789 31.0076C22.9504 30.9591 22.9756 30.9539 23.085 30.9653C23.3035 30.9882 23.3292 30.9181 23.2577 30.4936C23.2204 30.2727 23.03 30.0828 22.7514 29.9887C22.5192 29.9103 22.3859 29.9538 22.2572 30.1503C22.1752 30.2754 22.1637 30.2831 22.0308 30.3022C21.918 30.3185 21.8369 30.2826 21.5029 30.0684C21.257 29.9108 21.0734 29.844 20.8981 29.8486C20.7635 29.8521 20.7608 29.851 20.7013 29.7684C20.5907 29.6145 20.4606 29.5585 20.2908 29.5916ZM30.7464 34.0768C30.6178 34.1307 30.6178 34.1307 30.4827 34.0823C30.306 34.0189 30.266 34.0311 30.0611 34.2111C29.7481 34.4862 29.7304 34.5067 29.6929 34.6359C29.6555 34.7645 29.623 34.8029 29.4576 34.9142C29.3513 34.9858 29.2248 35.1662 29.168 35.3271C29.112 35.4858 29.004 35.6346 28.8963 35.7012C28.6176 35.8738 28.4749 35.9477 28.3547 35.9818C28.0641 36.0641 27.9142 36.186 27.7939 36.438C27.739 36.553 27.7101 36.5857 27.6162 36.6395C27.4774 36.719 27.4319 36.8016 27.3923 37.046C27.3524 37.2928 27.3125 37.3793 27.1824 37.5014C27.0475 37.6281 27.0353 37.7109 27.1366 37.8122C27.2632 37.9388 27.3931 37.8797 27.7155 37.5489C27.9241 37.335 27.9618 37.3188 28.1212 37.3743C28.1811 37.3952 28.2029 37.3909 28.2873 37.3414C28.3407 37.3101 28.4152 37.2845 28.4528 37.2845C28.6374 37.2845 28.7699 37.1347 28.7546 36.9433C28.7373 36.7278 28.8014 36.6823 28.9653 36.7936C29.0147 36.8272 29.0978 36.8572 29.1681 36.8667C29.2499 36.8778 29.3059 36.9003 29.3469 36.9386C29.5376 37.1164 29.7684 37.0835 29.9418 36.8538C30.0316 36.7347 30.0863 36.7161 30.1951 36.7678C30.2872 36.8115 30.2964 36.8112 30.4985 36.7595C30.7564 36.6936 30.8422 36.6239 30.8422 36.4802C30.8422 36.3974 30.8671 36.3398 30.9418 36.2499C31.0784 36.0857 31.0375 35.9352 30.7938 35.7044C30.5981 35.5192 30.6071 35.346 30.8057 35.4761C30.9401 35.5642 31.1049 35.5321 31.1977 35.3997C31.2442 35.3335 31.3116 35.265 31.3475 35.2477C31.458 35.1942 31.5364 34.9931 31.5795 34.6528C31.601 34.4826 31.4889 34.332 31.3243 34.3099C31.2429 34.299 31.2247 34.2853 31.1665 34.1906C31.0562 34.0114 30.9628 33.9861 30.7464 34.0768ZM21.4537 35.2182C21.431 35.224 21.3679 35.2524 21.3134 35.2814C21.2428 35.3189 21.1792 35.334 21.0914 35.334C20.9391 35.334 20.8549 35.3781 20.7565 35.5093C20.6921 35.5953 20.66 35.6156 20.508 35.6671C20.1444 35.7904 19.9545 36.1534 20.0727 36.4992C20.1034 36.5889 20.1114 36.6698 20.1072 36.8468C20.1008 37.1187 20.1177 37.154 20.3927 37.4398C20.5412 37.5943 20.5665 37.6111 20.7498 37.6769C20.8583 37.7158 20.9948 37.7782 21.0532 37.8155C21.2367 37.933 21.5786 37.9476 21.8063 37.8477C21.9002 37.8064 22.0329 37.7566 22.1012 37.7368C22.3107 37.6761 22.4933 37.5034 22.5882 37.2762C22.6065 37.2326 22.6456 37.1648 22.6751 37.1256C22.8605 36.8801 22.982 36.2158 22.8794 36.0095C22.8435 35.9374 22.7026 35.7685 22.4476 35.4919C22.3237 35.3576 22.1685 35.2908 21.9771 35.2896C21.872 35.289 21.7961 35.2753 21.736 35.2463C21.6525 35.206 21.5435 35.1951 21.4537 35.2182ZM25.8343 35.443C25.762 35.4642 25.6545 35.5037 25.5954 35.5308C25.508 35.5709 25.4693 35.5769 25.3872 35.5632C25.0406 35.5055 24.6365 35.6752 24.4822 35.9436C24.4497 36 24.3806 36.0762 24.3288 36.1128C24.1497 36.2391 24.0716 36.5142 24.1441 36.7635C24.1637 36.8308 24.1797 36.9148 24.1797 36.9502C24.1797 37.0445 24.3035 37.2765 24.3885 37.3413C24.429 37.3722 24.4918 37.4436 24.528 37.4999C24.6998 37.7673 24.8402 37.8428 25.1561 37.8372C25.3764 37.8333 25.3764 37.8333 25.4925 37.9205C25.6325 38.0257 25.7861 38.0391 25.9792 37.963C26.0417 37.9384 26.177 37.8986 26.28 37.8746C26.5122 37.8204 26.5891 37.7739 26.6797 37.6327C26.7188 37.5717 26.8039 37.4827 26.8687 37.4348C27.1453 37.2304 27.2806 36.8497 27.1695 36.588C27.1505 36.5432 27.126 36.4147 27.1151 36.3024C27.0819 35.9599 26.9783 35.8051 26.7101 35.6977C26.6283 35.665 26.507 35.5992 26.4404 35.5515C26.2325 35.4026 26.071 35.3737 25.8343 35.443ZM21.8885 35.9613C22.112 36.0471 22.1831 36.3138 22.0525 36.5767C21.8801 36.924 21.8116 36.9159 21.8046 36.5475C21.8001 36.3086 21.7875 36.2603 21.6999 36.1474C21.5963 36.014 21.7166 35.8953 21.8885 35.9613ZM25.3427 36.2114C25.4015 36.2429 25.3959 36.293 25.3161 36.4477C25.2533 36.5696 25.2468 36.6011 25.2434 36.8046C25.24 37.0085 25.2353 37.0313 25.1894 37.0685C25.002 37.2202 24.7917 36.8453 24.9136 36.5768C25.059 36.2563 25.2008 36.1355 25.3427 36.2114ZM21.057 36.2848C21.0827 36.3241 21.0902 36.3879 21.0872 36.5423C21.0843 36.6934 21.0933 36.7736 21.1216 36.8462C21.2109 37.0758 21.148 37.1124 20.9215 36.9625C20.7467 36.8468 20.7322 36.797 20.8219 36.6213C20.8772 36.5131 20.889 36.468 20.8786 36.4049C20.8557 36.2663 20.9869 36.1779 21.057 36.2848ZM26.2709 36.4095C26.4498 36.5769 26.4596 36.6059 26.3763 36.7224C26.3406 36.7724 26.285 36.8656 26.2527 36.9295C26.1687 37.096 25.9281 37.2389 25.896 37.1412C25.8919 37.1287 25.9234 37.0607 25.966 36.99C26.0718 36.8142 26.0765 36.782 26.0307 36.5489C25.9684 36.2317 26.0377 36.1914 26.2709 36.4095Z" fill="#3C82D7"/>
</g>
<defs>
<clipPath id="clip0_2291_1097">
<rect width="48" height="48" fill="white"/>
</clipPath>
</defs>
</svg>
