<svg width="48" height="48" viewBox="0 0 48 48" fill="none" xmlns="http://www.w3.org/2000/svg">
<g clip-path="url(#clip0_2277_725)">
<path fill-rule="evenodd" clip-rule="evenodd" d="M48 24C48 37.2548 37.2548 48 24 48C10.7452 48 0 37.2548 0 24C0 10.7452 10.7452 0 24 0C37.2548 0 48 10.7452 48 24ZM24 47.7884C37.138 47.7884 47.7884 37.138 47.7884 24C47.7884 10.862 37.138 0.211593 24 0.211593C10.862 0.211593 0.211593 10.862 0.211593 24C0.211593 37.138 10.862 47.7884 24 47.7884Z" fill="#0F47FA"/>
<path d="M24.0315 47.7886H24.3587C37.3458 47.6135 47.8199 37.0311 47.8199 24.0024C47.8199 10.9086 37.2411 0.285711 24.1641 0.21431C24.1199 0.213884 24.0757 0.213673 24.0315 0.213673C17.0308 0.213672 11.3556 5.53867 11.3556 12.1074C11.3556 18.6761 17.0307 24.001 24.0313 24.0011V24.0011C31.032 24.0011 36.7074 29.3261 36.7074 35.8948C36.7074 42.4636 31.0322 47.7886 24.0315 47.7886Z" fill="#0F47FA"/>
<path fill-rule="evenodd" clip-rule="evenodd" d="M22.7443 26.111C22.7456 26.0963 22.7515 26.0811 22.7643 26.0704C22.757 26.083 22.7503 26.0965 22.7443 26.111ZM22.7643 26.0704C22.7985 26.0418 22.8814 26.0453 23.0533 26.1782C23.3488 26.4065 24.3966 27.32 24.4234 27.4543C24.4503 27.5886 24.4906 27.8304 24.4234 27.911C24.4073 27.9304 24.395 27.9498 24.3835 27.968C24.347 28.0257 24.3175 28.0722 24.1951 28.0722C24.1608 28.0722 24.067 28.0704 23.9392 28.0679C23.4661 28.0587 22.5277 28.0405 22.422 28.0722C22.3145 28.1044 22.207 28.1752 22.1667 28.2065C22.3011 28.2558 22.6852 28.3597 23.1473 28.3811C23.1743 28.3824 23.2004 28.3836 23.2255 28.3848C23.7389 28.4083 23.8821 28.4149 24.0742 28.5558C24.1067 28.5796 24.1448 28.6041 24.1855 28.6304C24.3974 28.7668 24.6813 28.9497 24.6249 29.3214C24.5711 29.6763 24.3452 29.8504 24.0228 30.0987C23.9425 30.1606 23.8563 30.227 23.7652 30.302C23.3085 30.6782 22.6906 31.2423 22.3414 32.3035C22.3107 32.3967 22.2822 32.4829 22.2556 32.5632C21.9797 33.3974 21.912 33.6021 21.7772 34.5333C21.7202 34.9271 21.6792 35.2929 21.6418 35.6261C21.5824 36.1567 21.5321 36.6046 21.4414 36.9512C21.2936 37.5154 21.119 38.993 21.0653 40.0407C21.0223 40.879 21.0473 40.981 21.0653 40.9273C20.7473 41.9572 20.0954 44.1216 20.0309 44.5407C19.9503 45.0646 20.0309 45.6959 20.1115 45.4944C20.176 45.3332 20.21 45.2303 20.219 45.1989C20.2996 45.7183 20.4903 46.7356 20.6085 46.6496C20.7267 46.5637 20.7563 46.4616 20.7563 46.4213C20.801 46.5288 20.9578 46.7114 21.2264 46.5825C21.4951 46.4535 21.5264 46.4571 21.5085 46.475C21.6652 46.5064 22.0055 46.5314 22.113 46.381C22.1488 46.5467 22.3198 46.8323 22.7175 46.6496C22.8697 46.672 23.201 46.6577 23.3085 46.4213C23.3488 46.4303 23.4401 46.4347 23.4831 46.381C23.6219 46.4213 23.913 46.4347 23.9667 46.1661L24.41 42.6064C24.4771 42.584 24.6679 42.5607 24.8936 42.6467C25.0584 42.7095 25.2186 42.7081 25.3663 42.7068C25.4713 42.7058 25.5699 42.705 25.6592 42.7273C25.7693 42.7548 25.8829 42.7718 25.9982 42.789C26.108 42.8054 26.2194 42.822 26.3309 42.8482C26.5592 42.9019 26.6801 42.9288 26.8144 42.9288C26.8516 42.9288 26.8867 42.935 26.9181 42.9405C27 42.9549 27.0562 42.9648 27.0562 42.8482C27.1413 42.8124 27.3276 42.773 27.392 42.9019C27.4565 43.0309 27.4816 43.1347 27.4861 43.1706C27.504 43.0944 27.5129 42.9127 27.4055 42.7945C27.2712 42.6467 27.0831 42.6601 27.0025 42.6736C26.9219 42.687 26.4786 42.6601 26.3443 42.6064C26.5055 42.6064 26.8332 42.5769 26.8547 42.4586C26.864 42.4079 26.8621 42.365 26.8606 42.3301C26.8576 42.2634 26.856 42.2257 26.9353 42.2168C27.0562 42.2034 27.2309 42.2034 27.2443 42.3512C27.2398 42.2571 27.1637 42.0745 26.895 42.096C26.7164 42.1102 26.6898 42.1512 26.6656 42.1883C26.6443 42.221 26.6249 42.2509 26.5055 42.2571C26.463 42.2594 26.4172 42.2631 26.3698 42.267C26.1325 42.2862 25.8563 42.3087 25.7667 42.1631C25.7598 42.1519 25.753 42.141 25.7463 42.1303C25.6493 41.9744 25.5777 41.8594 25.5249 41.384C25.4996 41.1569 25.4359 40.6452 25.374 40.1484C25.3041 39.5874 25.2365 39.0453 25.2294 38.9527C25.3144 38.7736 25.5061 38.3429 25.592 38.0527C25.7085 37.9318 26.0192 37.6739 26.3309 37.6094C26.7204 37.5288 27.4995 37.0184 27.8487 36.2393C28.1281 35.616 28.2786 35.2542 28.3189 35.1512C28.4129 35.1199 28.6359 34.9659 28.7756 34.6005C28.9502 34.1438 29.0711 33.6333 29.0577 32.7468C29.0442 31.8602 28.7622 31.3229 28.4532 30.9737C28.4577 30.6334 28.4102 29.8131 28.1846 29.2543C28.1242 29.1047 28.0656 28.9355 28.004 28.7574C27.778 28.104 27.5111 27.3325 26.9622 26.9841C26.2637 26.5409 25.7532 26.4065 25.1891 26.4737C25.0967 26.4847 25.019 26.4946 24.9526 26.5031C24.6137 26.5464 24.5674 26.5523 24.3428 26.4737C24.1661 26.4118 24.0707 26.3558 23.9267 26.2711C23.8518 26.2271 23.7638 26.1753 23.6443 26.111C23.3122 25.9322 22.9073 25.8262 22.7643 26.0704ZM24.5443 41.4646L24.8532 38.9392C24.9741 38.7646 25.1219 40.3631 25.1488 40.7661C25.1702 41.0885 25.2204 41.6258 25.2428 41.8541L25.1488 41.7064C25.1622 41.5183 25.095 41.4377 24.9338 41.3706C24.8049 41.3168 24.6204 41.4109 24.5443 41.4646ZM24.8667 41.6393V41.5318C25.0494 41.5211 25.0771 41.6169 25.0682 41.6661C25.0467 41.6339 24.9249 41.6348 24.8667 41.6393ZM24.4637 42.1363L24.4368 42.4049C24.5622 42.4273 24.8237 42.4667 24.8667 42.4452C24.9204 42.4184 25.2025 42.19 25.2159 42.0825C25.2293 41.9751 25.2293 41.9482 25.1756 41.8945C25.1219 41.8408 25.0547 41.787 24.9473 41.787C24.8398 41.787 24.8264 41.8138 24.8129 41.8541C24.8398 41.9347 24.8613 42.1014 24.7324 42.1228C24.6034 42.1443 24.4995 42.1407 24.4637 42.1363Z" fill="#0F47FA"/>
</g>
<defs>
<clipPath id="clip0_2277_725">
<rect width="48" height="48" fill="white"/>
</clipPath>
</defs>
</svg>
