<svg width="48" height="49" viewBox="0 0 48 49" fill="none" xmlns="http://www.w3.org/2000/svg">
<g clip-path="url(#clip0_2288_853)">
<path fill-rule="evenodd" clip-rule="evenodd" d="M48 24.0586C48 37.3134 37.2548 48.0586 24 48.0586C10.7452 48.0586 0 37.3134 0 24.0586C0 10.8038 10.7452 0.0585938 24 0.0585938C37.2548 0.0585938 48 10.8038 48 24.0586ZM24 47.847C37.138 47.847 47.7884 37.1966 47.7884 24.0586C47.7884 10.9206 37.138 0.270187 24 0.270187C10.862 0.270187 0.211593 10.9206 0.211593 24.0586C0.211593 37.1966 10.862 47.847 24 47.847Z" fill="#11195F"/>
<path d="M24.0314 47.8473H24.3586C37.3457 47.6723 47.8198 37.0899 47.8198 24.0611C47.8198 10.9674 37.2409 0.344499 24.164 0.273098C24.1198 0.272672 24.0756 0.272461 24.0314 0.272461C17.0307 0.27246 11.3555 5.59746 11.3555 12.1662C11.3555 18.7349 17.0306 24.0598 24.0312 24.0599C24.0312 24.0599 24.0313 24.0599 24.0312 24.0599C31.0319 24.0599 36.7073 29.3849 36.7073 35.9536C36.7073 42.5223 31.0321 47.8473 24.0314 47.8473Z" fill="#11195F"/>
<path fill-rule="evenodd" clip-rule="evenodd" d="M29.9408 28.1611C29.5834 28.361 29.2257 28.6102 28.945 28.8549C28.7325 29.04 28.433 29.449 28.3411 29.6796C28.3163 29.7416 28.2798 29.832 28.2599 29.8804C28.2058 30.0118 28.1595 30.4067 28.1806 30.5559C28.1858 30.5926 28.2351 30.7117 28.2903 30.8207C28.4185 31.0741 28.4248 31.1373 28.3234 31.1517C28.3182 31.1524 28.2615 31.0922 28.1975 31.0179C28.051 30.8477 27.901 30.7455 27.6764 30.6627C27.5793 30.627 27.4594 30.5793 27.4098 30.5568C27.3153 30.5139 27.0509 30.4188 26.585 30.2603C26.4319 30.2082 26.2153 30.133 26.1037 30.0932C25.3083 29.8093 25.191 29.8313 25.2442 30.2545C25.2679 30.4429 25.6349 30.7234 26.161 30.955C26.2129 30.9779 26.3365 31.033 26.4355 31.0776C26.6067 31.1545 26.8389 31.2324 27.0298 31.2768C27.1916 31.3145 27.5562 31.3395 27.869 31.3344C28.2437 31.3283 28.2625 31.3518 28.1488 31.6861C28.1115 31.7956 28.0661 31.9354 28.0478 31.9967C28.0295 32.0579 27.9752 32.2096 27.927 32.3338C27.8789 32.4579 27.8127 32.6394 27.7798 32.7371C27.7085 32.9489 27.5888 33.0169 27.5664 32.8583C27.5515 32.7528 27.2435 32.5314 26.9442 32.411C26.8698 32.3811 26.7911 32.3453 26.7693 32.3315C26.6759 32.2724 25.867 31.9993 25.6056 31.9387C25.5577 31.9276 25.404 31.8759 25.2642 31.8238C24.9154 31.6939 24.5461 31.5908 24.4683 31.6017C24.4328 31.6066 24.3543 31.6049 24.2939 31.5978C24.1622 31.5823 24.163 31.5815 24.1472 31.7527C24.1254 31.9898 24.1894 32.0847 24.6521 32.5013C24.9388 32.7594 25.2907 32.9361 25.7251 33.0398C25.7937 33.0562 25.8837 33.0796 25.9252 33.0919C26.5334 33.2716 26.7533 33.299 27.1023 33.2389C27.2704 33.2098 27.4237 33.1762 27.443 33.164C27.5202 33.1154 27.6067 33.2047 27.5849 33.3103C27.5629 33.4168 27.435 33.8052 27.3826 33.9248C27.3636 33.9684 27.3255 34.0895 27.2981 34.194C27.2097 34.5309 27.104 34.6062 26.9081 34.4723C26.8241 34.4149 26.628 34.3354 26.3151 34.232C26.058 34.147 25.7739 34.0462 25.6839 34.008C24.7809 33.6255 23.8571 33.443 23.8822 33.6521C23.8891 33.7098 23.8883 33.8037 23.8804 33.8608C23.8464 34.1055 24.632 34.6953 25.3697 34.979C25.4275 35.0012 25.4927 35.031 25.5146 35.0451C25.6563 35.1363 26.347 35.1785 26.5115 35.1059C26.8321 34.9645 26.9462 35.0311 26.8673 35.3136C26.8459 35.39 26.7819 35.6191 26.7249 35.8227C26.668 36.0264 26.5991 36.2781 26.5717 36.3821C26.4965 36.6686 26.514 36.6665 25.6231 36.4944C25.5618 36.4826 25.3116 36.438 25.067 36.3955C23.9807 36.2062 24.071 36.2562 24.0842 35.8521C24.087 35.7669 24.0819 35.5808 24.0729 35.4383C24.0567 35.1831 24.0577 35.1773 24.1366 35.0381C24.2948 34.7593 24.1973 34.6079 23.8021 34.5184C23.5322 34.4573 23.4168 34.4591 23.3142 34.5259C23.19 34.6068 23.1689 34.5934 23.045 34.3554C22.9648 34.2012 22.902 34.1133 22.8281 34.0518C22.771 34.0041 22.6782 33.9216 22.622 33.8683C22.5234 33.7749 22.2402 33.6085 22.0932 33.5576C21.8557 33.4755 21.6035 33.5932 21.4683 33.8491C21.2709 34.2228 21.2673 34.0717 21.459 33.4611C21.5708 33.1053 21.5754 33.0425 21.514 32.7125C21.4561 32.4007 21.4054 32.1758 21.3742 32.0921C21.3298 31.9729 21.1007 32.1205 20.9922 32.3382C20.9351 32.4527 20.7639 32.9637 20.7694 33.003C20.776 33.0493 20.7216 33.1691 20.6309 33.3083C20.5805 33.3856 20.5074 33.5307 20.4685 33.6307C20.3977 33.8126 20.3977 33.8126 20.2522 33.8333C20.063 33.8602 19.9519 33.9583 19.7604 34.2671C19.6403 34.4609 19.5856 34.437 19.5591 34.1793C19.5269 33.8658 19.31 33.5056 19.103 33.4216C19.0513 33.4006 19.0076 33.3625 18.9943 33.3268C18.982 33.2941 18.9632 33.2525 18.9524 33.2344C18.9417 33.2164 18.9095 33.0397 18.8809 32.8419C18.8289 32.4821 18.8289 32.4821 18.7616 32.4612C18.7246 32.4498 18.6436 32.3954 18.5816 32.3404C18.4381 32.2131 18.0927 32.0581 18.0426 32.0985C17.9741 32.1537 17.9413 32.3036 17.9812 32.38C18.0234 32.461 18.0532 32.6422 18.0278 32.663C18.018 32.671 17.9043 32.6359 17.775 32.5849C17.6425 32.5327 17.4682 32.4848 17.3756 32.475C17.2853 32.4655 17.1277 32.4409 17.0255 32.4204C16.6924 32.3537 16.3194 32.4396 16.2791 32.5924C16.2421 32.7323 16.4901 32.937 16.7224 32.9584C17.1637 32.9989 17.2552 33.0827 16.969 33.1843C16.4857 33.3559 16.4646 33.4793 16.8946 33.6201C17.0755 33.6793 17.2581 33.7475 17.3005 33.7716C17.352 33.8011 17.3925 33.8082 17.4233 33.7933C17.4486 33.781 17.6169 33.7415 17.7973 33.7055C17.9777 33.6695 18.1526 33.6288 18.186 33.6151C18.2391 33.5933 18.2564 33.6008 18.3229 33.6747C18.4625 33.83 18.4402 33.861 18.1435 33.9243C17.6152 34.037 17.235 34.5635 17.6229 34.6453C17.8679 34.697 17.8797 34.7554 17.6645 34.8513C17.3357 34.9978 17.0149 35.3034 16.8754 35.603C16.8366 35.6863 16.779 35.7849 16.7475 35.822C16.5185 36.0907 16.5428 36.2887 16.7983 36.2361C16.8946 36.2162 16.9 36.2187 16.9731 36.3154C17.124 36.515 17.3395 36.6289 17.5746 36.6332C18.0272 36.6414 18.7744 36.5728 18.92 36.5096C19.1276 36.4196 19.1262 36.529 18.9159 36.8471C18.7547 37.0908 18.6584 37.164 18.4634 37.1916C18.4122 37.1988 18.2861 37.2324 18.1831 37.2662C18.0801 37.3 17.9073 37.3527 17.799 37.3834C16.5732 37.7306 16.5947 38.8299 17.8337 39.1608C18.3039 39.2864 18.3639 39.2906 18.6082 39.214C19.091 39.0628 19.1989 39.08 18.9366 39.2666C18.6176 39.4934 18.5845 39.6599 18.7777 40.0663C18.9025 40.3288 19.0208 40.5304 19.0961 40.6085C19.1367 40.6506 19.1597 40.7051 19.1712 40.7863C19.1907 40.9246 19.2082 40.9353 19.3673 40.9076C19.4927 40.8858 19.7813 40.9584 20.0586 41.0814C20.1207 41.109 20.2538 41.1429 20.3545 41.1568C20.6943 41.2039 20.3285 41.4325 19.7922 41.5083C19.6838 41.5236 19.4291 41.7164 19.3973 41.8071C19.3816 41.8517 19.3398 41.9417 19.3045 42.0071C19.234 42.1373 19.2325 42.2275 19.2999 42.2684C19.3239 42.2829 19.3925 42.3438 19.4523 42.4038C19.6958 42.6479 20.1033 42.6703 20.5647 42.4649C20.9312 42.3018 20.9666 42.3086 20.8867 42.5272C20.8051 42.7502 20.909 42.97 21.1595 43.1048C21.2249 43.1399 21.3079 43.1851 21.3438 43.2053C21.9508 43.5444 23.1648 43.6391 24.0128 43.4137C24.1859 43.3677 24.214 43.3835 24.2848 43.5674C24.3127 43.64 24.4075 43.8743 24.4954 44.088C24.6769 44.5295 24.6877 44.5759 24.6401 44.7113C24.5309 45.0223 24.6364 45.1776 25.0506 45.3155C25.4732 45.4563 25.4674 45.4587 25.5976 45.0842C25.693 44.8099 25.6936 44.8124 25.5126 44.6821C25.2749 44.511 25.2207 44.3443 25.2693 43.9348C25.278 43.862 25.2876 43.7486 25.2907 43.683C25.32 43.0648 25.3794 42.9141 25.5134 43.1181C25.7168 43.4275 25.7899 43.5201 25.944 43.6633C26.2495 43.9472 26.4757 44.0294 27.3971 44.191C28.6151 44.4046 28.9658 44.2986 28.8872 43.7407C28.8102 43.194 27.6453 42.4054 26.7753 42.3111C26.6917 42.302 26.5835 42.2902 26.5348 42.2848C26.2351 42.2517 25.769 42.4423 25.5772 42.6764C25.3733 42.9252 25.3555 42.8009 25.4894 42.0665C25.5113 41.946 25.534 41.8095 25.5398 41.763C25.5562 41.6314 25.644 41.632 25.743 41.7644C26.1355 42.289 27.7561 42.2986 28.1971 41.779C28.3312 41.621 28.279 41.517 27.957 41.3008C27.7395 41.1547 27.7579 41.1426 28.2875 41.0833C29.2831 40.9718 29.2442 40.4135 28.2168 40.0691C27.8569 39.9485 27.634 39.8575 27.4191 39.7435C26.8739 39.4541 26.598 39.3722 26.3625 39.43C26.0755 39.5004 26.0373 39.2967 26.3048 39.1222C26.3931 39.0646 26.3965 39.0131 26.3204 38.8857C26.2674 38.7971 26.2845 38.6857 26.3542 38.6655C26.3941 38.654 26.4147 38.6746 26.4746 38.7853C26.6137 39.043 26.8639 39.142 27.2786 39.1036C27.4627 39.0865 27.6842 39.0752 27.7708 39.0785C28.0764 39.0901 28.1536 39.0516 28.4223 38.7535C28.613 38.5419 28.2108 38.1358 27.5943 37.9172C27.4271 37.8579 27.2436 37.7869 27.1864 37.7594C26.966 37.6536 26.802 37.5971 26.7075 37.5948C26.5789 37.5915 26.5701 37.5559 26.6331 37.2956C26.6943 37.0427 26.7087 37.0343 26.8367 37.1762C27.0659 37.4303 27.5486 37.5527 28.2138 37.5253C28.474 37.5146 28.437 37.52 28.7803 37.4428C29.5119 37.2784 29.8776 37.0282 29.7234 36.7977C29.6198 36.6428 29.1993 36.4271 28.8405 36.3446C28.4282 36.2499 28.3302 36.247 27.7049 36.3107C26.7702 36.4061 26.8399 36.4488 27.0158 35.8883C27.1517 35.4555 27.1694 35.4356 27.2967 35.5721C27.4779 35.7664 27.6485 35.8425 28.0943 35.9283C28.6531 36.0359 29.3052 35.5524 28.9766 35.2742C28.5093 34.8787 28.3556 34.7923 27.7141 34.5652C27.5033 34.4905 27.4806 34.4525 27.5429 34.2781C27.8492 33.4205 27.863 33.395 27.9688 33.4896C28.0298 33.5442 28.1075 33.5127 28.148 33.4168C28.1924 33.3118 28.2295 33.3028 28.3756 33.3616C28.614 33.4576 29.1279 33.4508 29.4839 33.347C29.9461 33.2122 29.1645 32.668 28.5196 32.6756C28.1139 32.6804 28.0714 32.6561 28.147 32.4628C28.1727 32.3972 28.2127 32.2825 28.236 32.2079C28.3609 31.8084 28.4361 31.5906 28.4727 31.5218C28.4952 31.4794 28.5353 31.3919 28.5619 31.3272C28.6313 31.158 28.697 31.0989 28.8379 31.079C29.2924 31.0148 29.9007 30.5493 30.1174 30.1C30.132 30.0697 30.2048 29.9314 30.2792 29.7927C30.781 28.8567 30.867 28.528 30.688 28.2306C30.5884 28.0653 30.18 28.0273 29.9408 28.1611ZM19.0465 34.3783C19.3257 34.4998 19.3952 34.6682 19.1521 34.6344C19.1008 34.6272 19.0047 34.6216 18.9385 34.6218C18.7187 34.6227 18.5467 34.5281 18.6254 34.4495C18.767 34.3083 18.8523 34.2938 19.0465 34.3783ZM21.2953 34.2251C21.2623 34.4054 21.2484 34.7208 21.2629 34.9587C21.27 35.075 21.2672 35.2035 21.2566 35.2441C21.2144 35.406 21.2725 35.6714 21.4054 35.9232C21.5785 36.2511 21.5826 36.3985 21.4183 36.3833C21.137 36.3573 21.0952 36.3304 21.0708 36.16C21.0586 36.075 21.0371 36.0375 20.9588 35.9644C20.832 35.846 20.8137 35.7501 20.9114 35.7161C21.0659 35.6624 21.0461 35.5745 20.8672 35.5194C20.6342 35.4475 20.6144 35.312 20.8124 35.1435C20.9569 35.0206 21.0066 34.9472 21.0274 34.826C21.0667 34.5971 21.2262 34.1934 21.2804 34.1857C21.2929 34.184 21.2996 34.2017 21.2953 34.2251ZM20.2734 34.852C20.3105 34.8959 20.4353 35.2544 20.4265 35.2917C20.4062 35.3779 20.1779 35.1241 20.1596 34.9953C20.1433 34.8796 20.2176 34.7859 20.2734 34.852ZM22.5009 36.8979C22.536 36.9148 22.609 36.9574 22.6631 36.9925C22.9011 37.1472 23.0443 37.1514 23.2621 37.0099C23.4688 36.8756 23.5456 36.8683 23.7303 36.9653C23.9193 37.0646 24.2559 37.171 24.596 37.239C24.9725 37.3144 25.0076 37.3166 25.52 37.2993C25.7209 37.2924 25.9586 37.1983 26.137 37.0549C26.3614 36.8746 26.4016 36.9049 26.3365 37.2052C26.3161 37.2994 26.2867 37.4359 26.2711 37.5086C26.2555 37.5813 26.245 37.6566 26.2477 37.676C26.2636 37.7884 26.0559 37.8624 25.7836 37.8416C25.7265 37.8372 25.5712 37.8271 25.4385 37.819C25.172 37.8029 25.1322 37.7863 25.0679 37.664C24.8782 37.3034 24.4109 37.2239 24.0561 37.4918C23.9485 37.573 23.7919 37.665 23.688 37.708C23.5036 37.7844 23.2718 37.949 23.1159 38.1142C22.8684 38.3765 22.6388 38.3899 22.604 38.144C22.5859 38.0157 22.5242 37.844 22.448 37.7101C22.4283 37.6753 22.3945 37.6001 22.373 37.5429C22.3514 37.4857 22.2887 37.385 22.2336 37.3191C22.1041 37.1645 22.0974 37.1154 22.1974 37.0567C22.2402 37.0316 22.2838 36.9826 22.2943 36.9479C22.317 36.8725 22.4042 36.8515 22.5009 36.8979ZM20.5236 38.7023C20.8251 38.8025 20.8914 38.8163 20.9984 38.8012C21.1696 38.777 21.2006 38.8098 21.129 38.9392C20.9609 39.2428 20.926 39.2582 20.6592 39.1464C20.5763 39.1117 20.3908 39.0562 20.247 39.023C20.1032 38.9898 19.9774 38.9593 19.9675 38.9553C19.9576 38.9512 19.9687 38.8959 19.9923 38.8324C20.0158 38.7688 20.0326 38.6992 20.0295 38.6777C20.0135 38.5643 20.1247 38.5698 20.5236 38.7023ZM25.9834 38.4516C26.0211 38.4962 26.0029 38.7117 25.9588 38.7435C25.8746 38.8043 25.5688 38.7231 25.6021 38.6488C25.6362 38.5725 25.949 38.4108 25.9834 38.4516ZM23.7424 38.9217C23.8042 38.9611 23.8131 38.9767 23.7957 39.0149C23.7537 39.1067 23.5785 39.0735 23.564 38.9711C23.5509 38.8784 23.637 38.8545 23.7424 38.9217ZM22.3693 39.4375C22.4314 39.5299 22.5144 39.767 22.4972 39.8028C22.4443 39.9133 22.1902 39.5208 22.241 39.407C22.2607 39.3629 22.3303 39.3795 22.3693 39.4375ZM23.0811 39.6448C23.1506 39.6611 23.2543 39.6678 23.3115 39.6597C23.4268 39.6434 23.497 39.6904 23.5116 39.7938C23.5684 40.1955 24.3092 41.036 24.7368 41.1839C25.1631 41.3312 25.2569 41.5365 25.1242 42.0311C25.1084 42.0899 25.099 42.1622 25.1032 42.192C25.1125 42.2581 25.0565 42.5184 25.0222 42.5679C24.9851 42.6216 24.9588 42.6001 24.788 42.3763C24.6112 42.1446 24.5514 42.1096 24.2037 42.0341C24.031 41.9967 23.9991 41.9816 23.9721 41.9246C23.9011 41.7746 23.7943 41.5847 23.4662 41.0247C23.3815 40.8802 23.3085 40.737 23.3039 40.7065C23.2993 40.676 23.2466 40.5448 23.1869 40.4149C23.07 40.1607 23.0351 40.0736 22.9659 39.8632C22.9414 39.7888 22.9165 39.7242 22.9104 39.7198C22.8982 39.7108 22.9286 39.619 22.9446 39.6167C22.9501 39.6159 23.0115 39.6286 23.0811 39.6448ZM24.9587 39.7804C25.0592 39.7911 25.1948 39.8002 25.2602 39.8006C25.3469 39.8011 25.3995 39.8175 25.4543 39.8611C25.5946 39.9724 25.5956 40.0046 25.4756 40.5274C25.3179 41.2146 25.2606 41.2754 25.1696 40.852C25.0946 40.5031 24.9683 40.2327 24.7698 39.9967C24.6005 39.7954 24.643 39.7468 24.9587 39.7804ZM22.4399 40.2104C22.5832 40.2618 22.4646 40.4199 22.2618 40.4478C22.0834 40.4722 22.0694 40.4249 22.2143 40.2873C22.3056 40.2006 22.3604 40.1819 22.4399 40.2104ZM21.9479 40.5334C21.9768 40.5914 21.6408 40.8131 21.5857 40.7723C21.5373 40.7365 21.7861 40.5097 21.8762 40.5076C21.9082 40.5069 21.9405 40.5184 21.9479 40.5334ZM26.0848 40.2638C26.1183 40.368 26.2129 40.4973 26.3357 40.6064C26.4701 40.7258 26.4596 40.7455 26.2503 40.7662C26.1159 40.7795 26.0466 40.7995 25.9438 40.8547C25.7304 40.9694 25.7276 40.9516 25.8835 40.4743C25.9867 40.1585 26.0349 40.1081 26.0848 40.2638ZM22.8885 40.9338C22.9127 40.9594 22.9975 41.0888 23.0769 41.2213C23.1563 41.3539 23.2465 41.5015 23.2775 41.5492C23.5444 41.9612 23.5101 42.0108 22.9777 41.9821C22.8627 41.9759 22.0807 42.0397 21.6817 42.0878C21.4257 42.1187 21.3632 42.0953 21.4933 42.0175C21.534 41.9932 21.6522 41.9223 21.756 41.86C21.8598 41.7977 21.9778 41.7124 22.0183 41.6704C22.0587 41.6284 22.1164 41.5767 22.1465 41.5553C22.2445 41.486 22.5797 41.1449 22.6722 41.0204C22.7726 40.8852 22.8232 40.865 22.8885 40.9338ZM24.942 42.9151C25.0165 42.9419 25.0131 43.1733 24.9322 43.5677C24.924 43.608 24.9127 43.6842 24.9072 43.7371C24.8872 43.93 24.8807 43.9542 24.8474 43.959C24.8146 43.9635 24.5591 43.4275 24.5403 43.3147C24.5326 43.2685 24.819 42.908 24.869 42.9009C24.8821 42.8991 24.915 42.9055 24.942 42.9151Z" fill="#11195F"/>
</g>
<defs>
<clipPath id="clip0_2288_853">
<rect width="48" height="48" fill="white" transform="translate(0 0.0585938)"/>
</clipPath>
</defs>
</svg>
