<svg width="48" height="48" viewBox="0 0 48 48" fill="none" xmlns="http://www.w3.org/2000/svg">
<g clip-path="url(#clip0_2288_856)">
<path fill-rule="evenodd" clip-rule="evenodd" d="M48 24.0586C48 37.3134 37.2548 48.0586 24 48.0586C10.7452 48.0586 0 37.3134 0 24.0586C0 10.8038 10.7452 0.0585938 24 0.0585938C37.2548 0.0585938 48 10.8038 48 24.0586ZM24 47.847C37.138 47.847 47.7884 37.1966 47.7884 24.0586C47.7884 10.9206 37.138 0.270187 24 0.270187C10.862 0.270187 0.211593 10.9206 0.211593 24.0586C0.211593 37.1966 10.862 47.847 24 47.847Z" fill="#1320AE"/>
<path d="M24.0315 47.8471H24.3587C37.3458 47.6721 47.8199 37.0897 47.8199 24.0609C47.8199 10.9672 37.2411 0.344305 24.1641 0.272904C24.1199 0.272477 24.0757 0.272266 24.0315 0.272266C17.0308 0.272266 11.3556 5.59726 11.3556 12.166C11.3556 18.7347 17.0307 24.0596 24.0313 24.0597C31.032 24.0597 36.7074 29.3847 36.7074 35.9534C36.7074 42.5222 31.0322 47.8471 24.0315 47.8471Z" fill="#1320AE"/>
<path d="M19.4245 45.6265C19.5146 45.7301 19.6511 45.6262 19.7081 45.5612L18.2485 35.2349C18.3291 35.4552 18.6149 35.7358 18.7434 35.7424L19.4938 35.4971C19.8023 35.3861 19.9135 35.4799 20.0617 35.3844C20.2099 35.2889 20.307 35.2581 20.5498 35.0693C20.7925 34.8804 20.6886 34.9652 21.0247 34.871C21.2936 34.7956 21.5476 34.5305 21.6409 34.4074L21.7928 34.4012C21.761 34.501 21.5626 36.4324 21.6254 37.5301C21.6881 38.6279 21.5575 40.0288 21.5619 40.5743C21.5663 41.1198 21.4785 41.5975 21.4941 41.9815L21.5255 42.7496C21.4286 43.4423 21.4255 44.0239 21.4282 44.3101C21.431 44.5962 21.0145 44.6938 21.1461 44.8494C21.2514 44.9739 21.581 44.8376 21.7326 44.7539C21.7396 44.7775 21.7765 44.863 21.8686 45.0167C21.9838 45.2088 22.13 45.2833 22.4872 45.2688C22.8444 45.2541 22.7139 45.1253 23.0775 45.0478C23.3684 44.9858 23.864 44.8099 24.0754 44.7298L24.0144 45.2064C24.1024 45.1699 24.3362 45.0268 24.5681 44.7454C24.8579 44.3936 24.7697 44.4241 25.0793 44.3398C25.389 44.2556 25.3365 44.2846 25.656 44.4415C25.9116 44.5671 26.1127 44.5988 26.1813 44.599C26.4084 44.6851 26.8956 44.8292 27.027 44.7165C27.1912 44.5756 26.9978 44.4404 26.8863 44.3376C26.7747 44.2348 26.827 44.4205 26.8201 43.8125C26.8131 43.2045 26.6219 42.6845 26.5942 42.0057L26.2873 34.495L26.7365 34.9776C27.0171 35.2792 27.4178 35.4507 27.6607 35.4855C27.9037 35.5203 27.8572 35.4775 28.0416 35.613C28.2261 35.7486 28.7193 35.9969 28.9444 36.0324C29.1245 36.0608 29.2341 35.6061 29.2664 35.3751C29.3262 35.3787 29.5099 35.3795 29.7666 35.3547C30.0873 35.3237 30.2277 35.2554 30.487 35.2537C30.7464 35.2521 31.0433 34.8553 31.1082 34.6916C31.173 34.5279 31.0886 34.433 30.8803 34.3699C30.7137 34.3195 30.3507 34.326 30.1901 34.3355C30.2472 34.2735 30.3763 34.1186 30.4356 33.9945C30.5098 33.8394 30.3266 33.9542 30.1766 34.0051C30.0266 34.0559 29.5591 34.2182 29.3998 34.2605C29.2405 34.3027 28.5259 34.1083 28.4311 33.978C28.3363 33.8477 28.1856 33.8806 28.0294 33.7797C27.9044 33.6989 27.6824 33.6806 27.587 33.6815C27.5849 33.6309 27.5631 33.491 27.4924 33.3364C27.404 33.1432 27.094 33.2185 26.9325 33.2072C26.8033 33.1982 26.4541 32.4455 26.2956 32.0703C26.238 31.8866 26.114 31.7855 26.0592 31.7579L26.4343 31.7426C26.4482 31.6436 26.3844 31.3099 26.0187 30.7666C25.653 30.2234 25.1514 29.827 24.9114 29.7205C24.9233 29.4993 24.9117 28.9833 24.7709 28.6885C24.63 28.3937 24.331 28.4321 24.1991 28.4882C23.8641 28.3445 23.4686 28.4167 23.3128 28.4708C23.0984 28.4795 22.9911 28.6986 22.9499 29.0044C22.917 29.2491 22.8889 29.5556 22.8791 29.6783C22.8265 29.7072 22.6873 29.8024 22.5503 29.9511C22.3789 30.137 22.1063 30.4702 21.9105 30.9344C21.754 31.3058 21.7499 31.5284 21.7675 31.5933L21.984 31.6382L21.9858 31.6828C21.8794 31.7051 21.7796 31.888 21.7229 32.0335C21.6662 32.1789 21.4823 32.2759 21.2249 32.5458C21.0191 32.7618 20.8349 33.0717 20.7686 33.1996C20.6971 33.2025 20.5851 33.3801 20.538 33.4685C20.2561 33.3547 20.2515 33.4623 19.9247 33.5651C19.598 33.6679 19.7762 33.6517 19.5651 33.7408C19.3963 33.8121 18.8164 33.9533 18.5476 34.015C18.4293 33.9661 18.3557 33.9155 18.2396 33.9202C18.1467 33.924 18.0784 33.8433 18.0558 33.8025L17.91 32.4218C17.9349 32.3761 18.0474 32.282 18.0483 32.0852C18.0492 31.8884 18.2393 31.5049 18.2292 31.0401C18.2212 30.6684 17.8026 30.0139 17.5944 29.7331L17.5787 29.3491C17.4037 29.2704 17.1664 29.3302 17.0696 29.3699C17.0731 29.5278 17.0749 29.8492 17.0543 29.8715C17.0173 30.0609 16.8557 30.7026 16.8718 31.0956C16.8878 31.4886 17.1534 31.6387 17.2677 32.0277C17.3591 32.3388 17.4467 32.3961 17.4791 32.3858L17.6775 33.7375C17.5963 33.7944 17.4267 33.9499 17.3977 34.1156C17.3614 34.3229 17.4079 34.3657 17.4591 34.5246C17.5104 34.6836 17.5009 34.8897 17.5926 35.1633C17.6659 35.3821 17.8193 35.3836 17.8868 35.357L19.4245 45.6265Z" fill="#1320AE"/>
</g>
<defs>
<clipPath id="clip0_2288_856">
<rect width="48" height="48" fill="white" transform="translate(0 0.0585938)"/>
</clipPath>
</defs>
</svg>
