<svg width="48" height="49" viewBox="0 0 48 49" fill="none" xmlns="http://www.w3.org/2000/svg">
<g clip-path="url(#clip0_2288_879)">
<path fill-rule="evenodd" clip-rule="evenodd" d="M48 24.0586C48 37.3134 37.2548 48.0586 24 48.0586C10.7452 48.0586 0 37.3134 0 24.0586C0 10.8038 10.7452 0.0585938 24 0.0585938C37.2548 0.0585938 48 10.8038 48 24.0586ZM24 47.847C37.138 47.847 47.7884 37.1966 47.7884 24.0586C47.7884 10.9206 37.138 0.270187 24 0.270187C10.862 0.270187 0.211593 10.9206 0.211593 24.0586C0.211593 37.1966 10.862 47.847 24 47.847Z" fill="#0463FF"/>
<path d="M24.0315 47.8471H24.3587C37.3458 47.6721 47.8199 37.0897 47.8199 24.0609C47.8199 10.9672 37.2411 0.344305 24.1641 0.272904C24.1199 0.272477 24.0757 0.272266 24.0315 0.272266C17.0308 0.272266 11.3556 5.59726 11.3556 12.166C11.3556 18.7347 17.0307 24.0596 24.0313 24.0597C31.032 24.0597 36.7074 29.3847 36.7074 35.9534C36.7074 42.5222 31.0322 47.8471 24.0315 47.8471Z" fill="#0463FF"/>
<path d="M18.9525 34.6561C19.0986 34.6149 19.9003 34.4485 20.0816 34.4202C20.1006 34.4172 20.1161 34.401 20.1173 34.3818L20.1441 33.9407C20.1443 33.9376 20.1449 33.9344 20.1459 33.9314L21.4357 30.0568C21.4372 30.0524 21.4395 30.0482 21.4425 30.0447L21.749 29.6852C21.7546 29.6786 21.7576 29.6702 21.7582 29.6616C21.7619 29.6092 21.7855 29.4771 21.8594 29.2699C21.9397 29.045 22.2433 28.8794 22.3911 28.8221C22.3952 28.8205 22.3995 28.8198 22.4039 28.8198H22.8178C22.8277 28.8198 22.8371 28.8238 22.844 28.8309L23.1427 29.1393C23.1493 29.1461 23.153 29.1552 23.153 29.1646V29.3685C23.153 29.3886 23.1693 29.4049 23.1895 29.4049H23.3269C23.3365 29.4049 23.3458 29.4087 23.3526 29.4155L25.6131 31.6597C25.62 31.6666 25.6239 31.6759 25.6239 31.6856V32.3008C25.6239 32.3103 25.6275 32.3194 25.6341 32.3262L26.0914 32.7981C26.099 32.8061 26.1027 32.8171 26.1014 32.828L25.9501 34.0491C25.9469 34.0743 25.9698 34.0949 25.9945 34.0891L27.2738 33.7909C27.287 33.7878 27.3008 33.7922 27.3095 33.8026C27.499 34.0274 28.8792 35.71 28.8651 35.8264C28.8552 35.9078 28.8516 36.0166 28.8507 36.0814C28.8505 36.0988 28.8628 36.1138 28.8799 36.1172C29.1214 36.1646 29.5684 36.2604 29.6354 36.3065C29.6921 36.3455 29.695 36.4335 29.6863 36.4946C29.6834 36.515 29.6955 36.5352 29.7158 36.5389C29.8714 36.5674 30.207 36.6062 30.2604 36.7716C30.3185 36.9516 31.5103 39.7572 31.6847 40.1473C31.8592 40.5374 31.9028 40.6274 31.8737 40.7474C31.8446 40.8675 30.4057 42.0828 30.3185 42.0978C30.2488 42.1097 28.7727 42.2524 28.04 42.3225C28.0377 42.3227 28.0358 42.323 28.0336 42.3237C27.9225 42.36 27.263 42.7426 26.9174 42.7129C26.5686 42.6829 24.4466 42.2028 24.2286 42.1428C24.0585 42.0959 23.7271 41.8266 23.5715 41.688C23.5641 41.6814 23.5546 41.6781 23.5447 41.6788C23.1467 41.709 22.3491 41.7614 22.2228 41.7377C22.0996 41.7146 21.7959 41.6339 21.6438 41.5923C21.6331 41.5893 21.6216 41.5915 21.6127 41.598L21.278 41.8427L20.5986 42.2518C20.5874 42.2586 20.5734 42.2588 20.562 42.2523C20.4065 42.1644 20.1231 42.0043 20.1008 41.9927C20.0717 41.9777 19.1415 40.8675 19.0979 40.7625C19.0704 40.6961 19.1859 40.5881 19.2858 40.5135C19.3121 40.4939 19.3038 40.4508 19.2719 40.4438C19.0148 40.3879 18.6203 40.2908 18.5892 40.2374C18.5455 40.1623 18.0514 39.3221 18.0078 39.1721C17.9642 39.0221 17.8625 39.0071 17.7753 38.872C17.6881 38.737 17.7462 38.707 17.8189 38.587C17.8739 38.4962 18.3317 38.0763 18.5903 37.8448C18.6102 37.827 18.6049 37.7948 18.5805 37.7841C18.3593 37.6878 17.985 37.521 17.9206 37.4767C17.8334 37.4167 17.8479 37.4017 17.8625 37.2517C17.877 37.1017 17.9352 36.2315 17.9642 36.1864C17.9847 36.1547 18.0892 36.113 18.1569 36.0898C18.172 36.0846 18.1823 36.0707 18.1829 36.0548C18.1844 36.0192 18.1882 35.9539 18.1968 35.8564C18.2113 35.6913 18.1968 35.6913 18.3276 35.6163C18.4256 35.5601 18.8029 35.3944 19.0136 35.3037C19.0347 35.2946 19.0423 35.2686 19.03 35.2493C18.9908 35.1878 18.9319 35.0883 18.8943 35.0012C18.8685 34.9412 18.8944 34.6725 18.9525 34.6561Z" fill="#0463FF"/>
</g>
<defs>
<clipPath id="clip0_2288_879">
<rect width="48" height="48" fill="white" transform="translate(0 0.0585938)"/>
</clipPath>
</defs>
</svg>
