<svg width="48" height="48" viewBox="0 0 48 48" fill="none" xmlns="http://www.w3.org/2000/svg">
<g clip-path="url(#clip0_2277_779)">
<path fill-rule="evenodd" clip-rule="evenodd" d="M48 24C48 37.2548 37.2548 48 24 48C10.7452 48 0 37.2548 0 24C0 10.7452 10.7452 0 24 0C37.2548 0 48 10.7452 48 24ZM24 47.7884C37.138 47.7884 47.7884 37.138 47.7884 24C47.7884 10.862 37.138 0.211593 24 0.211593C10.862 0.211593 0.211593 10.862 0.211593 24C0.211593 37.138 10.862 47.7884 24 47.7884Z" fill="#1030E5"/>
<path d="M24.0315 47.7886H24.3587C37.3458 47.6135 47.8199 37.0311 47.8199 24.0024C47.8199 10.9086 37.2411 0.285711 24.1641 0.21431C24.1199 0.213884 24.0757 0.213673 24.0315 0.213673C17.0308 0.213672 11.3556 5.53867 11.3556 12.1074C11.3556 18.6761 17.0307 24.001 24.0313 24.0011C31.032 24.0011 36.7074 29.3261 36.7074 35.8948C36.7074 42.4636 31.0322 47.7886 24.0315 47.7886Z" fill="#1030E5"/>
<path fill-rule="evenodd" clip-rule="evenodd" d="M19.4832 40.4758C19.4036 40.9043 19.2492 41.7754 19.203 42.1857C19.1562 42.6027 19.0478 43.4436 18.9963 43.8363C18.9942 43.8523 18.9994 43.868 19.0103 43.8798C19.1686 44.05 19.4702 44.3976 19.537 44.5638C19.6175 44.7645 19.8751 45.0909 20.1139 45.178C20.1424 45.1883 20.1613 45.2179 20.1502 45.2461C20.0845 45.4114 19.8825 45.6282 19.4622 45.4723C19.1079 45.3409 19.0323 45.1616 18.9585 44.9868C18.9107 44.8735 18.8638 44.7622 18.7422 44.667C18.6225 44.5732 18.5056 44.517 18.4099 44.4709C18.2585 44.3981 18.1598 44.3506 18.1853 44.22C18.2269 44.0068 18.3022 43.5798 18.2764 43.1123C18.2632 42.8723 18.214 42.4516 18.1625 42.0105C18.1137 41.5926 18.0628 41.1565 18.0382 40.8383C18 40.3432 17.9877 39.8641 17.986 39.6554C17.9858 39.6351 17.9744 39.6168 17.9563 39.6077C17.6269 39.4419 16.8969 39.0589 16.3819 38.7364C16.1895 38.616 16.0105 38.5209 15.8529 38.4372C15.4668 38.232 15.2092 38.0951 15.1976 37.8207C15.1813 37.4343 15.7312 35.7225 16.401 34.8951C16.7521 34.4961 17.6345 33.554 18.3558 32.9779C19.0605 32.4151 20.0603 31.6473 20.5024 31.3107C20.5207 31.2967 20.5279 31.2729 20.5189 31.2518C20.4837 31.1693 20.4088 31.0478 20.3053 31.0283C20.1899 31.0065 19.8266 31.0076 19.639 31.0113C19.6246 31.0115 19.6112 31.0176 19.6012 31.0278C19.402 31.2312 18.8976 31.6139 18.3457 31.6373C17.6372 31.6673 16.9313 31.5691 16.4972 31.0921C16.1199 30.6777 16.2764 30.0345 16.3709 29.8137C16.3858 29.7791 16.3686 29.7329 16.3326 29.7216L15.513 29.4667C15.4844 29.4577 15.4686 29.4271 15.478 29.3986L15.5185 29.2757C15.5279 29.2472 15.5588 29.232 15.5872 29.2418L16.5005 29.5592C16.5208 29.5662 16.5434 29.5604 16.5579 29.5445L16.7756 29.3045C16.8001 29.2775 16.7911 29.2344 16.7578 29.2195L15.9151 28.84C15.888 28.8278 15.8759 28.7958 15.8883 28.7688L15.9677 28.5951C15.9811 28.5656 16.0175 28.5547 16.045 28.5719L16.9366 29.1286C16.9564 29.141 16.9819 29.1391 16.9998 29.124L17.1712 28.9786C17.1993 28.9548 17.1956 28.9103 17.1639 28.8915L16.2803 28.3662C16.258 28.3529 16.2484 28.3257 16.2573 28.3014L16.3212 28.1281C16.3333 28.0951 16.3733 28.0825 16.4022 28.1025L17.3907 28.7872C17.4099 28.8005 17.4353 28.7998 17.4546 28.7866C17.6787 28.6338 18.2564 28.4148 19.0277 28.6126C20.0413 28.8725 20.1653 29.3159 20.062 29.5962C19.9986 29.7682 19.8698 29.8957 19.774 29.9668C19.7414 29.991 19.74 30.0424 19.7753 30.0626C19.8805 30.1228 20.0364 30.1975 20.1726 30.2211C20.205 30.2267 20.2318 30.1986 20.2315 30.1657C20.2298 29.9435 20.3106 29.5488 20.4291 29.5221C20.4729 29.5123 20.4728 29.5662 20.4726 29.6624C20.4724 29.854 20.4718 30.2135 20.8161 30.5729C21.1142 30.8845 21.1686 30.8226 21.2602 30.7183C21.2889 30.6857 21.3213 30.6489 21.3659 30.6181C21.4229 30.5788 21.4721 30.5351 21.5188 30.4937C21.6254 30.399 21.7191 30.3158 21.8636 30.3221C22.0273 30.3292 22.6868 30.33 23.011 30.3295C23.0212 30.3295 23.0307 30.3267 23.0393 30.3212C23.2694 30.1765 23.7871 29.8986 24.1221 29.8821C24.2876 29.8739 24.6456 29.8249 25.0576 29.7686C25.7085 29.6796 26.494 29.5722 26.8669 29.5783C27.4758 29.5883 28.328 29.8589 28.5055 30.042C28.5679 30.1064 28.6137 30.1684 28.6562 30.2261C28.7337 30.3311 28.8004 30.4215 28.9376 30.485C28.9407 30.4864 28.9439 30.4883 28.9465 30.4905C28.9663 30.5075 28.9638 30.5792 28.9613 30.6502C28.9589 30.7183 28.9566 30.7857 28.9739 30.8037L29.1663 31.004C29.1933 31.0321 29.2404 31.0231 29.2566 30.9877C29.3108 30.8687 29.3927 30.7195 29.4439 30.7289C29.5048 30.7401 29.8047 31.0499 29.9626 31.2199C29.9734 31.2316 29.9888 31.2379 30.0047 31.2371C30.0904 31.2329 30.2279 31.2267 30.2452 31.2281C30.2624 31.2295 30.4914 31.3903 30.6387 31.4954C30.6642 31.5136 30.6996 31.5063 30.7159 31.4795L30.8816 31.2065C30.8966 31.1818 30.9285 31.1734 30.9537 31.1875L30.9627 31.1925C30.9811 31.2028 30.9918 31.2228 30.9901 31.2438L30.9677 31.5155C30.9659 31.5375 30.9777 31.5583 30.9973 31.5684C31.1231 31.6327 31.3306 31.7525 31.4126 31.8483C31.4276 31.8658 31.4249 31.8912 31.4096 31.9084L31.2382 32.1016C31.2285 32.1126 31.2236 32.1271 31.2249 32.1417L31.2458 32.3931C31.2467 32.4039 31.2508 32.4141 31.2577 32.4225L31.3621 32.5507C31.39 32.5849 31.3671 32.6362 31.3231 32.6383L30.9877 32.6543C30.9423 32.6564 30.92 32.7105 30.9506 32.7441L31.2609 33.0841C31.2792 33.1042 31.2796 33.1349 31.2617 33.1555L30.4149 34.1305C30.3996 34.1482 30.3745 34.1539 30.353 34.1446L30.0322 34.0052C30.0136 33.9971 29.9922 34.0002 29.9762 34.0126C29.7912 34.1559 29.3748 34.3772 28.9935 34.2541C28.5067 34.0969 28.3967 33.9783 28.4202 33.7082C28.4215 33.6938 28.4173 33.6793 28.408 33.6681L28.1929 33.4068C28.1814 33.3928 28.1636 33.3856 28.1456 33.3876L27.571 33.4513C27.5581 33.4527 27.5462 33.4587 27.5374 33.4683L26.8091 34.2619C26.7942 34.2782 26.7707 34.2837 26.7501 34.2756L24.7861 33.5091C24.7812 33.5072 24.7761 33.506 24.771 33.5056L22.663 33.3322C22.6341 33.3298 22.6086 33.3508 22.603 33.3792C22.5673 33.5596 22.4361 33.9134 22.1208 34.2183C21.7761 34.5516 21.0541 35.0875 20.7249 35.322C20.7173 35.3274 20.7115 35.3345 20.7076 35.3429L19.3966 38.1498C19.3918 38.16 19.3904 38.1714 19.3925 38.1825L19.6427 39.507C19.6451 39.5196 19.6518 39.5309 19.6618 39.5388C19.835 39.6752 20.2459 39.9558 20.6277 40.0805C21.0226 40.2096 20.9906 40.381 20.9496 40.6001C20.9395 40.654 20.9289 40.7109 20.924 40.7708C20.9171 40.8546 20.9021 40.947 20.8867 41.0422C20.8463 41.2911 20.8028 41.5597 20.8918 41.7469C20.9798 41.9318 20.9972 42.3417 20.9947 42.583C20.9943 42.6209 20.9554 42.6455 20.9206 42.6304L20.299 42.36C20.2785 42.3511 20.2657 42.3307 20.2665 42.3084C20.2787 41.98 20.2615 41.3011 20.1001 40.9357C19.9501 40.5963 19.6885 40.467 19.5398 40.4356C19.5128 40.4299 19.4882 40.4487 19.4832 40.4758ZM28.225 31.3203C28.2456 31.3393 28.2478 31.3709 28.2327 31.3946C28.1673 31.4967 28.0866 31.6884 28.1201 31.897C28.1251 31.9276 28.1061 31.958 28.0756 31.9638L27.8251 32.0121C27.7997 32.0169 27.7745 32.0031 27.765 31.979L27.563 31.467C27.5583 31.4549 27.5494 31.4451 27.538 31.4391C27.3689 31.3504 27.0603 31.1837 27.05 31.158C27.0367 31.1248 26.5913 30.6871 26.5608 30.6685C26.5391 30.6553 26.3134 30.6414 26.1661 30.6342C26.1372 30.6328 26.1127 30.6545 26.1103 30.6833L26.1044 30.7541C26.1016 30.7891 26.0666 30.8119 26.0334 30.8005L25.8658 30.7427C25.8191 30.7266 25.8171 30.6618 25.863 30.6436C26.1642 30.5244 26.6464 30.3507 26.8858 30.3262C27.1925 30.2948 27.2826 30.3953 27.4058 30.5328C27.4223 30.5512 27.4395 30.5703 27.4578 30.5898C27.5751 30.715 27.9969 31.1093 28.225 31.3203ZM18.226 35.8579C18.2547 35.8327 18.2866 35.8548 18.2824 35.8928L18.0553 37.9294C18.0511 37.9669 18.0107 37.9885 17.9772 37.9713C17.6825 37.8197 17.2019 37.5797 16.9905 37.4989C16.9521 37.4842 16.9336 37.4317 16.9584 37.399C17.3342 36.9042 17.993 36.0632 18.226 35.8579Z" fill="#1030E5"/>
</g>
<defs>
<clipPath id="clip0_2277_779">
<rect width="48" height="48" fill="white"/>
</clipPath>
</defs>
</svg>
