<svg width="48" height="48" viewBox="0 0 48 48" fill="none" xmlns="http://www.w3.org/2000/svg">
<g clip-path="url(#clip0_2288_889)">
<path fill-rule="evenodd" clip-rule="evenodd" d="M48 24.0293C48 37.2841 37.2548 48.0293 24 48.0293C10.7452 48.0293 0 37.2841 0 24.0293C0 10.7745 10.7452 0.0292969 24 0.0292969C37.2548 0.0292969 48 10.7745 48 24.0293ZM24 47.8177C37.138 47.8177 47.7884 37.1673 47.7884 24.0293C47.7884 10.8913 37.138 0.24089 24 0.24089C10.862 0.24089 0.211593 10.8913 0.211593 24.0293C0.211593 37.1673 10.862 47.8177 24 47.8177Z" fill="#5150E7"/>
<path d="M24.0315 47.8179H24.3587C37.3458 47.6428 47.8199 37.0604 47.8199 24.0317C47.8199 10.9379 37.2411 0.315008 24.1641 0.243607C24.1199 0.24318 24.0757 0.242969 24.0315 0.242969C17.0308 0.242969 11.3556 5.56797 11.3556 12.1367C11.3556 18.7054 17.0307 24.0303 24.0313 24.0304C31.032 24.0304 36.7074 29.3554 36.7074 35.9241C36.7074 42.4929 31.0322 47.8179 24.0315 47.8179Z" fill="#5150E7"/>
<path fill-rule="evenodd" clip-rule="evenodd" d="M24.3007 28.4458C24.1528 28.6412 24.0715 28.9028 23.9948 29.43C23.9778 29.5468 24.0395 30.0248 24.0868 30.1435C24.1456 30.2906 24.0133 30.2198 23.7765 29.9772C23.522 29.7166 23.2867 29.3387 23.2867 29.1905C23.2867 29.1274 23.1467 29.0401 23.1079 29.079C23.0961 29.0909 23.1174 29.1644 23.1552 29.2425C23.193 29.3205 23.2239 29.4067 23.2239 29.4339C23.2239 29.5151 23.4742 29.9725 23.6238 30.1646C23.8779 30.4911 23.8846 30.5427 23.7167 30.8792C23.6908 30.9311 23.6576 31.015 23.643 31.0656C23.6057 31.195 23.5478 31.2008 23.5214 31.0777C23.4889 30.9263 23.3137 30.5572 23.2963 30.6035C23.2727 30.6661 23.1987 30.6492 23.1755 30.5759C23.1627 30.5352 23.1699 30.4993 23.1941 30.4844C23.2605 30.4432 23.1398 30.2912 22.7561 29.933C22.2293 29.4412 22.1527 29.4364 22.3144 29.9055C22.4176 30.2048 22.4947 30.4894 22.5185 30.6586C22.5306 30.7453 22.5678 30.9437 22.601 31.0997C22.6343 31.2556 22.6696 31.4222 22.6796 31.4698C22.7054 31.5925 22.6803 31.5803 22.4767 31.3716C22.376 31.2684 22.2134 31.1447 22.1085 31.0914C21.9302 31.0011 21.8343 30.9333 21.3293 30.5415C20.8608 30.1779 20.7997 30.2838 21.1122 30.918L21.2536 31.2047C21.2549 31.2073 21.2553 31.2103 21.2548 31.2132L21.2168 31.4264C21.188 31.5881 21.1866 31.6908 21.2116 31.8261C21.2582 32.0791 21.2426 32.073 21.0409 31.7594C20.8876 31.5211 20.1365 30.6852 20.0408 30.6465C19.9066 30.5922 20.0935 31.7139 20.3065 32.2405C20.3641 32.3831 20.3477 32.3854 20.0502 32.2773C19.9043 32.2243 19.6719 32.1609 19.5337 32.1363C19.2384 32.0838 19.0998 31.9989 18.8945 31.7451C18.6417 31.4327 18.6326 31.458 18.8072 31.9888C19.0168 32.6261 19.2595 32.9521 19.7147 33.2074C19.9859 33.3595 19.9828 33.3894 19.6985 33.363C19.4724 33.342 19.4691 33.3403 19.2088 33.1186C18.7212 32.7034 18.6598 32.6567 18.6341 32.6825C18.5799 32.7369 18.6785 32.954 18.8286 33.111C18.913 33.1993 18.9905 33.3099 19.0008 33.3567C19.011 33.4036 19.0758 33.5226 19.1446 33.6212C19.2913 33.8312 19.289 33.841 19.1087 33.7771C18.9309 33.7142 18.5919 33.6357 18.4979 33.6357C18.3707 33.6357 18.1113 33.482 17.8605 33.2579C17.5132 32.9476 17.4725 33.256 17.7936 33.7645C17.8438 33.844 17.8848 33.9293 17.8848 33.9542C17.8848 34.0231 18.3538 34.4711 18.5051 34.5468C18.6916 34.6401 18.7001 34.6384 18.0811 34.6333C17.5078 34.6285 17.0525 34.6981 16.8934 34.8147C16.7435 34.9247 17.3479 35.4167 18.034 35.7431C18.3079 35.8735 18.3126 35.8973 18.0854 36.0091C17.92 36.0904 17.6149 36.3069 17.3414 36.5369C17.269 36.5978 17.165 36.648 17.0771 36.6645C16.8958 36.6984 16.8801 36.7142 16.9621 36.7803C16.9982 36.8095 17.0364 36.8581 17.047 36.8885C17.0689 36.9509 17.2494 36.9601 17.5237 36.9127C17.6779 36.886 18.2028 37.0752 18.3494 37.2103C18.4197 37.2751 17.5031 37.5971 17.0707 37.6595C16.8373 37.6932 16.8418 37.7361 17.0909 37.8492C17.3306 37.958 18.1334 38.2352 18.2089 38.2352C18.3193 38.2352 18.2841 38.2963 18.1441 38.3476C17.6693 38.5216 17.5961 38.669 17.9931 38.652C18.3309 38.6375 18.3487 38.6471 18.1596 38.742C17.5157 39.0655 17.9825 39.4846 18.9589 39.4596C19.4814 39.4462 19.4883 39.5003 18.9936 39.7322C18.8327 39.8076 18.6802 39.8902 18.6547 39.9158C18.6292 39.9414 18.5904 39.9698 18.5685 39.979C18.5418 39.9901 18.5597 40.023 18.6229 40.0789C18.8009 40.2364 18.8596 40.247 19.4433 40.2281C20.0668 40.2079 20.1137 40.2159 20.0396 40.3294C20.0118 40.372 19.9891 40.44 19.9891 40.4807C19.9891 40.5213 19.9533 40.6459 19.9095 40.7574C19.8048 41.0245 19.7821 41.2651 19.8339 41.5579C19.8847 41.8444 19.8822 41.844 20.1246 41.5982C20.2314 41.49 20.4601 41.3072 20.6329 41.1922C20.9332 40.9923 21.1162 40.8211 21.3825 40.4913C21.5113 40.3318 21.5883 40.3286 21.5289 40.4853C21.5109 40.5328 21.5067 40.5883 21.5196 40.6085C21.5326 40.6287 21.545 40.784 21.5472 40.9535C21.5516 41.2945 21.5571 41.3113 21.6495 41.2618C21.7167 41.2257 21.7194 41.2146 21.7793 40.7398C21.799 40.5838 21.8408 40.3499 21.8722 40.22C21.9036 40.09 21.9383 39.9057 21.9493 39.8104C22.0124 39.2661 22.2244 38.718 22.3975 38.6518C22.9579 38.4375 22.9656 38.4425 22.704 38.8488C22.5219 39.1314 22.4547 39.3064 22.5281 39.3064C22.5683 39.3064 22.9421 38.847 23.108 38.5936C23.3931 38.158 23.6927 38.002 23.8811 38.1909C23.8901 38.1999 23.8069 38.2913 23.6963 38.394C23.4611 38.6123 23.4631 38.6562 23.7022 38.5208C23.9091 38.4037 23.9646 38.4009 24.0589 38.503C24.1003 38.5478 24.1666 38.5818 24.2127 38.5818C24.3274 38.5818 24.3325 38.6198 24.2763 39.0577C24.1718 39.8725 23.8608 40.5726 23.2528 41.3617C22.8377 41.9005 22.4202 42.6864 22.2695 43.2128C22.2274 43.3601 22.1831 43.5055 22.1711 43.5357C22.1282 43.6446 22.267 43.5929 22.445 43.4336C22.6239 43.2738 22.7595 43.0648 22.8597 42.795C22.9063 42.6692 23.119 42.4568 23.1982 42.4568C23.2037 42.4568 23.2082 42.68 23.2082 42.9529C23.2082 43.5158 23.3136 43.9689 23.4445 43.9689C23.6012 43.9689 24.1148 43.3533 24.2463 43.0079C24.3186 42.8182 24.3726 42.8267 24.3966 43.0316C24.4283 43.3028 24.8889 44.0949 25.0148 44.0949C25.0666 44.0949 25.3286 43.7979 25.3901 43.6696C25.4693 43.5041 25.5289 43.0356 25.5072 42.7484C25.4978 42.6227 25.5021 42.5197 25.5169 42.5197C25.572 42.5197 25.7639 42.7953 25.8692 43.0257C26.012 43.3381 26.2929 43.5899 26.6736 43.7467C26.8789 43.8312 26.8271 43.5587 26.5107 42.8901C26.3222 42.4916 26.2786 42.3228 26.3361 42.2149C26.3757 42.1407 26.3724 42.1294 26.2932 42.0661C26.2071 41.9972 26.1671 41.7951 26.2395 41.7951C26.3105 41.7951 26.5844 42.2722 26.5844 42.3959C26.5844 42.5413 26.6199 42.5707 26.695 42.4874C26.7686 42.4059 26.8115 42.409 26.9238 42.5036C27.0161 42.5816 27.0687 42.5974 27.2046 42.5877C27.2991 42.581 27.2957 42.519 27.1834 42.2006C27.1267 42.04 27.101 41.9213 27.1164 41.8912C27.1302 41.8644 27.1593 41.7644 27.1812 41.6691C27.2379 41.4221 27.2947 41.3226 27.3791 41.3226C27.4183 41.3226 27.4865 41.2806 27.5324 41.2281C27.5919 41.1602 27.6433 41.1336 27.7153 41.1336C27.9082 41.1336 28.0415 40.9514 28.0158 40.7232C27.9915 40.5074 28.0003 40.5018 28.2131 40.5987C28.4936 40.7264 28.8075 40.6678 28.9102 40.4686C28.9532 40.3851 28.9941 40.3553 29.1016 40.3292C29.2022 40.3047 29.2492 40.273 29.28 40.2089C29.3329 40.0988 29.3953 40.0766 29.725 40.0499C30.151 40.0155 30.6045 39.8713 30.6044 39.7704C30.6042 39.7257 30.4375 39.6187 30.1019 39.448C29.9723 39.3821 29.7566 39.2593 29.6224 39.175C29.4532 39.0687 29.3137 39.008 29.167 38.9768C29.0507 38.9521 28.8072 38.8952 28.6258 38.8504C28.4444 38.8056 28.1247 38.7422 27.9153 38.7094C27.3963 38.6281 26.8356 38.3116 26.8356 38.0997C26.8356 38.0419 26.9138 38.0262 26.9455 38.0777C27.0244 38.2057 27.1508 38.0954 27.1983 37.8572C27.2413 37.6413 27.3241 37.6204 27.6376 37.7462C27.8631 37.8367 27.9807 37.8327 28.151 37.7288C28.3293 37.62 28.2767 37.5389 28.081 37.6209C27.8918 37.7002 27.5149 37.6726 27.5329 37.5807C27.5632 37.4265 27.7704 37.3378 28.0758 37.3481C28.2826 37.3551 28.4253 37.3421 28.5602 37.3041C28.8077 37.2345 28.8051 37.1985 28.5551 37.2336C28.1473 37.2908 27.7546 37.1656 28.0428 37.0703C28.1022 37.0506 28.1878 37.0053 28.233 36.9696L28.3088 36.9098C28.3127 36.9067 28.318 36.906 28.3227 36.908L28.551 37.0041C28.8784 37.142 29.3833 37.2945 29.6541 37.3375C29.9498 37.3843 30.2982 37.966 30.2982 38.4131C30.2982 38.5649 30.3471 38.7182 30.3545 38.5897C30.3553 38.5766 30.3675 38.5057 30.3817 38.432C30.4535 38.0595 30.1079 37.2271 29.8815 37.2271C29.6257 37.2271 29.9278 37.0983 30.2506 37.0697C30.4716 37.0501 30.5752 37.0246 30.6864 36.9623C30.7665 36.9174 30.8622 36.8805 30.8989 36.8805C31.0213 36.8805 31.421 36.6243 31.421 36.546C31.421 36.5056 31.4041 36.501 31.3345 36.5228C31.2042 36.5636 30.3598 36.5403 30.1977 36.4914C30.0428 36.4447 29.9937 36.3795 30.1071 36.3712C30.225 36.3626 30.5192 36.3455 30.6042 36.3423L30.6463 36.3407C30.6589 36.3402 30.6643 36.3243 30.6544 36.3163L30.552 36.2332C30.5447 36.2272 30.5454 36.2157 30.5535 36.2108L30.6413 36.157C30.8131 36.0519 31.1571 36.0353 31.5462 36.1134C31.8431 36.173 30.9807 35.3965 30.5546 35.2207C30.3833 35.1501 30.3784 35.1164 30.5396 35.1164C30.7605 35.1164 31.0601 35.0259 31.4248 34.8491C31.7497 34.6916 31.8015 34.6759 31.9953 34.6756C32.2905 34.6752 32.2466 34.6073 31.8062 34.383C31.2666 34.1083 30.9473 34.0392 30.592 34.1205C30.3774 34.1696 30.5779 34.0296 30.8868 33.9146C31.1596 33.813 31.7825 33.0495 31.7219 32.891C31.6777 32.7751 30.7062 32.915 30.3285 33.0916C30.1707 33.1654 30.1741 33.1214 30.343 32.9047C30.6019 32.5723 30.6646 32.4316 30.7588 31.9712C30.7992 31.7738 30.7796 31.7193 30.6954 31.7957C30.5967 31.8853 30.5861 31.8154 30.6828 31.714C30.7322 31.6623 30.7637 31.6112 30.7528 31.6003C30.7004 31.5478 29.3592 31.7813 29.1892 31.8725C29.0806 31.9308 29.0775 31.8764 29.1838 31.7791C29.4093 31.5724 29.6625 31.0973 29.8334 30.5601C29.9767 30.1093 29.9737 30.0968 29.7558 30.2444C29.6957 30.2852 29.5264 30.3801 29.3795 30.4553C29.0162 30.6414 28.7196 30.8345 28.5879 30.9705C28.4227 31.1411 28.4176 31.1309 28.3962 30.5844C28.3777 30.1129 28.3809 30.0711 28.4536 29.8362C28.5648 29.477 28.5503 29.1937 28.4205 29.1937C28.3862 29.1937 28.3745 29.2342 28.3745 29.3538C28.3745 29.5097 28.2978 29.8669 28.1958 30.1861C28.1628 30.2891 28.0873 30.4068 27.9775 30.5263C27.8852 30.6268 27.8009 30.7437 27.7903 30.7862C27.7578 30.9161 27.715 30.8722 27.715 30.7091C27.715 30.5985 27.7417 30.5038 27.8092 30.3751C27.861 30.2763 27.9034 30.1632 27.9034 30.1238C27.9034 30.0844 27.9247 29.9919 27.9506 29.9183C28.0064 29.7596 28.0062 29.7608 27.9667 29.7608C27.8949 29.7608 27.5856 30.4068 27.3709 31.0051C27.2561 31.3252 27.1957 31.4814 27.1126 31.6732C27.081 31.746 27.0337 31.9082 27.0074 32.0337C26.8829 32.6272 26.779 32.8796 26.6591 32.8796C26.6151 32.8796 26.5844 32.8982 26.5844 32.9249C26.5844 32.9529 26.5455 32.9739 26.4823 32.98C26.3826 32.9897 26.38 32.9938 26.3707 33.1569C26.3643 33.2681 26.3457 33.3299 26.3149 33.3417C26.2895 33.3515 26.2337 33.4323 26.191 33.5212C26.0167 33.884 25.9263 33.917 26.0018 33.5902C26.081 33.2476 26.0686 33.0794 25.9563 32.9741C25.8208 32.8472 25.8138 32.4626 25.9448 32.3417C26.1293 32.1713 26.5611 31.6639 26.6199 31.5483L26.6678 31.4542C26.6733 31.4433 26.663 31.4312 26.6514 31.4349L26.6178 31.4455C26.5025 31.4823 26.55 31.3006 26.7467 30.9524C26.8126 30.8356 26.9102 30.6295 26.9634 30.4945C27.0912 30.17 27.316 29.7561 27.4846 29.5348C27.6794 29.279 27.6584 29.2584 27.3609 29.4132C27.0208 29.5902 26.8496 29.7199 26.4925 30.0707C26.078 30.478 26.0948 30.4736 26.1761 30.1547C26.241 29.9001 26.2528 29.6094 26.2093 29.3355C26.1562 29.0002 26.0339 28.5321 25.9995 28.5321C25.8562 28.5321 25.3996 29.1973 25.3725 29.4457C25.3488 29.6617 25.228 30.0443 25.1834 30.0443C25.1411 30.0443 25.1256 30.0043 25.0931 29.8119C25.0587 29.6075 24.9369 29.3722 24.7533 29.1551C24.6447 29.0267 24.5647 28.8967 24.5418 28.8114C24.4696 28.5423 24.357 28.3715 24.3007 28.4458ZM24.3813 31.9366C24.4956 32.1212 24.5059 32.2056 24.4173 32.2338C24.3407 32.2582 24.3375 32.3376 24.4073 32.4844C24.4834 32.6444 24.4352 32.6579 24.2912 32.5168C24.153 32.3814 24.1497 32.3629 24.2013 32.0146C24.243 31.7332 24.2526 31.729 24.3813 31.9366ZM24.3598 32.786C24.4941 33.019 24.5733 33.4257 24.5145 33.5807C24.4628 33.7172 24.4293 33.6835 24.3919 33.457C24.3722 33.3375 24.3025 33.1324 24.2302 32.9814C24.0921 32.6927 24.0843 32.6592 24.1414 32.602C24.2012 32.542 24.236 32.5713 24.3598 32.786ZM29.2539 32.9889C29.2539 33.0138 29.1258 33.2341 29.0309 33.3725C28.9141 33.5428 28.5514 33.8737 28.286 34.0521C27.7202 34.4325 27.7536 34.4165 27.6531 34.3536C27.6019 34.3215 27.5804 34.3263 27.52 34.383C27.1609 34.7205 26.7897 34.6755 26.976 34.317C27.037 34.1997 27.0869 34.0831 27.0869 34.058C27.0869 34.0329 27.1423 33.9018 27.21 33.7666L27.3303 33.5266C27.3322 33.523 27.3356 33.5203 27.3396 33.5194L27.5128 33.4805C27.6116 33.4583 27.9258 33.364 28.211 33.2709C28.4962 33.1777 28.8016 33.0881 28.8897 33.0716C28.9777 33.0551 29.0851 33.0273 29.1283 33.0099C29.2179 32.9737 29.2539 32.9676 29.2539 32.9889ZM22.5604 33.1643C22.731 33.319 22.7744 33.5149 22.6608 33.6179C22.5721 33.6984 22.5313 33.6549 22.4427 33.3854C22.323 33.0216 22.3491 32.9726 22.5604 33.1643ZM26.0819 34.1076C26.0819 34.1907 25.907 34.4875 25.8629 34.4791C25.7645 34.4605 25.7849 34.2519 25.8942 34.1597C25.9937 34.0757 26.0819 34.0512 26.0819 34.1076ZM21.731 34.5796C21.8189 34.6771 21.771 34.7504 21.634 34.7281C21.539 34.7126 21.5187 34.7197 21.5048 34.7733C21.4904 34.8282 21.4714 34.8341 21.3667 34.8164C21.2876 34.803 21.2453 34.8077 21.2453 34.8301C21.2453 34.8489 21.2594 34.8644 21.2767 34.8644C21.294 34.8644 21.3081 34.8856 21.3081 34.9116C21.3081 34.9829 21.272 34.9679 21.1518 34.8468C21.0043 34.6982 21.0409 34.6435 21.3225 34.5913C21.4399 34.5696 21.5436 34.5442 21.5529 34.5348C21.5892 34.4984 21.6779 34.5207 21.731 34.5796ZM22.3064 34.9872C22.4103 35.0261 22.4389 35.052 22.432 35.1006C22.4131 35.2335 22.163 35.1709 21.8813 34.9626C21.6688 34.8055 21.7048 34.756 21.9598 34.8547C22.0764 34.8999 22.2323 34.9595 22.3064 34.9872ZM28.1509 35.2061C28.2652 35.2902 28.4507 35.4197 28.563 35.494C29.0517 35.8175 29.0578 35.8808 28.5976 35.8527C28.2207 35.8298 28.0109 35.8642 27.7781 35.987C27.5261 36.12 27.4017 36.0802 27.5291 35.9073C27.5689 35.8533 27.5904 35.7839 27.584 35.7298C27.5733 35.6377 27.4952 35.5788 27.4952 35.6629C27.4952 35.6892 27.4526 35.7411 27.4006 35.7782C27.3486 35.8154 27.3131 35.8573 27.3218 35.8714C27.3305 35.8855 27.3003 35.9216 27.2547 35.9516C27.1737 36.0048 27.1722 36.0045 27.1892 35.9393C27.2003 35.8968 27.1919 35.8725 27.1663 35.8725C27.1441 35.8725 27.1087 35.8516 27.0876 35.826C27.0664 35.8005 27.001 35.7705 26.942 35.7595C26.7584 35.7249 26.8195 35.4373 27.0427 35.2859C27.1102 35.2401 27.2053 35.169 27.2542 35.128C27.334 35.0609 27.3733 35.0534 27.6429 35.0534H27.9384C27.9413 35.0534 27.9441 35.0543 27.9465 35.056L28.1509 35.2061ZM26.7227 35.3635C26.7579 35.4207 26.6763 35.6204 26.6177 35.6204C26.5366 35.6204 26.4795 35.4211 26.5425 35.3579C26.5725 35.3279 26.7032 35.3319 26.7227 35.3635ZM20.9815 36.0599C21.0316 36.0764 21.1327 36.1053 21.2061 36.1242C21.3562 36.1627 21.3846 36.2142 21.2532 36.2095C20.5946 36.1861 20.8458 36.3771 21.5986 36.472C22.0798 36.5327 21.9641 36.605 21.3909 36.6019C21.0528 36.6 20.8881 36.5531 20.5495 36.3623C20.2723 36.2062 20.2935 36.1536 20.6571 36.0949C20.7395 36.0816 20.8161 36.0615 20.8272 36.0503C20.8541 36.0233 20.8739 36.0245 20.9815 36.0599ZM27.558 36.5813C27.6606 36.6246 27.7732 36.6601 27.8083 36.6601C27.9954 36.6601 27.8369 36.724 27.6365 36.7294C27.1246 36.7431 27.1641 36.7503 27.1756 36.6447C27.1936 36.4792 27.2815 36.4646 27.558 36.5813ZM21.6378 37.4159C21.6636 37.4972 21.6342 37.5422 21.5553 37.5422C21.5078 37.5422 21.4947 37.5597 21.5022 37.613C21.5176 37.7213 22.018 37.7257 22.2896 37.6198C22.4815 37.5451 22.315 37.7167 22.1011 37.8141C21.9673 37.875 21.8224 37.9578 21.7792 37.998C21.6274 38.1392 20.7711 38.1883 20.7214 38.0585C20.6601 37.8981 21.1257 37.4425 21.4081 37.3868C21.6096 37.347 21.6163 37.3479 21.6378 37.4159ZM26.4524 38.9834C26.6046 39.5759 26.4619 39.71 26.1929 39.2274C26.0661 38.9999 26.0452 38.8338 26.1436 38.8338C26.1775 38.8338 26.2204 38.8055 26.2389 38.7708C26.3137 38.6306 26.3783 38.6949 26.4524 38.9834ZM25.9219 39.1006C26.0551 39.3072 26.2343 39.4767 26.4191 39.5708C26.5448 39.6348 26.5455 39.6383 26.565 40.3224C26.5834 40.9653 26.5837 40.9648 26.3528 40.6531C26.2598 40.5275 26.1042 40.3255 26.0072 40.2042C25.7834 39.9245 25.6353 39.6404 25.5513 39.3296C25.4723 39.0376 25.4727 39.0428 25.5335 39.0662C25.5614 39.0769 25.5879 39.065 25.5963 39.038C25.6042 39.0123 25.6174 38.9701 25.6255 38.9441C25.662 38.827 25.7886 38.8939 25.9219 39.1006Z" fill="#5150E7"/>
</g>
<defs>
<clipPath id="clip0_2288_889">
<rect width="48" height="48" fill="white" transform="translate(0 0.0292969)"/>
</clipPath>
</defs>
</svg>
