<svg width="48" height="48" viewBox="0 0 48 48" fill="none" xmlns="http://www.w3.org/2000/svg">
<g clip-path="url(#clip0_2288_891)">
<path fill-rule="evenodd" clip-rule="evenodd" d="M48 24.0586C48 37.3134 37.2548 48.0586 24 48.0586C10.7452 48.0586 0 37.3134 0 24.0586C0 10.8038 10.7452 0.0585938 24 0.0585938C37.2548 0.0585938 48 10.8038 48 24.0586ZM24 47.847C37.138 47.847 47.7884 37.1966 47.7884 24.0586C47.7884 10.9206 37.138 0.270187 24 0.270187C10.862 0.270187 0.211593 10.9206 0.211593 24.0586C0.211593 37.1966 10.862 47.847 24 47.847Z" fill="#529AD4"/>
<path d="M24.0315 47.8471H24.3587C37.3458 47.6721 47.8199 37.0897 47.8199 24.0609C47.8199 10.9672 37.2411 0.344305 24.1641 0.272904C24.1199 0.272477 24.0757 0.272266 24.0315 0.272266C17.0308 0.272266 11.3556 5.59726 11.3556 12.166C11.3556 18.7347 17.0307 24.0596 24.0313 24.0597C31.032 24.0597 36.7074 29.3847 36.7074 35.9534C36.7074 42.5222 31.0322 47.8471 24.0315 47.8471Z" fill="#529AD4"/>
<path fill-rule="evenodd" clip-rule="evenodd" d="M33.452 33.3778C33.4907 33.2788 33.5449 33.0526 33.452 32.939C33.4175 32.8968 33.4023 32.866 33.3903 32.8415C33.3619 32.7837 33.3508 32.7611 33.1423 32.7068C33.0452 32.6814 32.9508 32.6491 32.8573 32.6172C32.6653 32.5516 32.4774 32.4873 32.2777 32.4873C32.1083 32.4873 31.9894 32.5588 31.8873 32.6202C31.8105 32.6663 31.7433 32.7068 31.6713 32.7068C31.5035 32.7068 30.9099 32.9261 30.639 33.0552C30.5008 33.121 30.3961 33.2103 30.272 33.3163C30.1527 33.418 30.0154 33.5352 29.8131 33.6617C29.5637 33.8208 29.0079 34.183 28.7808 34.3584C28.5724 34.5195 28.3047 34.7435 28.1689 34.8591C28.1529 34.8727 28.1286 34.8664 28.1217 34.8466C27.8679 34.1216 27.0271 32.6265 25.5591 32.1141C25.5507 32.1111 25.5441 32.1049 25.541 32.0966C25.3047 31.4595 24.4262 30.2626 22.755 30.4715C20.6519 30.7344 20.2879 32.4487 20.2475 33.0552C20.2154 33.5353 20.2336 34.3621 20.247 34.727C20.2473 34.7345 20.2449 34.7413 20.2399 34.7468C20.0982 34.9016 19.6298 35.175 18.819 35.0939C18.7673 35.0888 18.7137 35.0832 18.6583 35.0775C17.6096 34.969 15.9481 34.7971 14.9492 35.9112C13.8976 37.0841 13.837 39.4299 15.7783 40.4613C17.7196 41.4926 20.5508 40.9466 21.4406 39.6119C22.3286 38.2799 22.8943 36.7262 22.4745 34.8986C22.4729 34.8915 22.4737 34.8843 22.4773 34.8779C22.7499 34.3861 23.3923 33.4365 23.8712 33.4043C23.89 33.403 23.9035 33.4202 23.899 33.4384C23.6853 34.3097 23.4438 36.1508 24.1302 36.8212C24.985 37.6562 25.9967 38.0808 27.3368 37.4031C27.361 37.3909 27.3889 37.4143 27.38 37.4399C27.146 38.1143 26.8812 39.5191 27.529 40.2914C27.8118 40.6286 28.0461 40.8818 28.2324 41.0832C28.5996 41.48 28.7808 41.6758 28.7808 41.9173C28.7808 41.9606 28.7816 42.0033 28.7824 42.045C28.7883 42.3537 28.7933 42.6122 28.4597 42.7355C28.1181 42.8618 27.6951 42.7062 27.313 42.5657C27.2124 42.5287 27.1146 42.4928 27.022 42.4632L27.0139 42.4607C26.5673 42.3186 25.7626 42.0625 24.8379 42.6655C24.2133 43.0728 23.9249 43.4137 23.8244 43.5924C23.8104 43.6175 23.8367 43.6378 23.8597 43.6205C24.3263 43.2702 25.2913 42.6655 25.9502 42.6655C26.4138 42.6655 26.6707 42.815 26.9473 42.976C27.1895 43.117 27.4467 43.2668 27.8713 43.3328C28.7808 43.4744 29.2777 43.171 29.4395 42.6655C29.6013 42.1599 29.5072 41.5076 28.9026 40.8859C28.1356 40.0972 27.7095 39.2075 27.8713 38.4997C27.9649 38.09 28.1603 37.6531 28.3238 37.2873C28.4409 37.0255 28.5417 36.7999 28.5774 36.6468C28.5785 36.6418 28.5807 36.6374 28.5842 36.6336C28.9248 36.2579 29.6997 35.4549 30.116 35.2034C30.5277 34.9547 30.8595 34.7386 30.9802 34.6576C30.984 34.655 30.9881 34.6535 30.9927 34.6529C31.4293 34.598 32.3738 34.4196 32.7144 34.1368C32.8406 34.0319 32.942 33.9611 33.0266 33.902C33.2287 33.7608 33.3343 33.687 33.452 33.3778ZM25.731 33.7517C25.72 33.7502 25.7101 33.7562 25.7051 33.766C25.4766 34.2177 25.1121 35.2062 25.4235 35.6733C25.8174 36.2641 26.5356 36.3684 26.9642 35.9629C27.1262 35.8097 27.2305 35.7148 27.2953 35.6582C27.3186 35.6379 27.3549 35.501 27.3421 35.4729C27.189 35.1361 26.8652 34.5488 26.4781 34.2166C26.0734 33.8692 25.8232 33.7645 25.731 33.7517ZM20.5359 36.3974C20.5571 36.379 20.5936 36.3939 20.5918 36.4219C20.5478 37.1028 20.2027 38.4424 19.1021 38.976C17.6664 39.6721 15.9697 38.8164 16.0422 37.7288C16.1147 36.6411 17.3909 36.6846 18.087 36.8006C18.7485 36.9109 20.104 36.7723 20.5359 36.3974Z" fill="#529AD4"/>
</g>
<defs>
<clipPath id="clip0_2288_891">
<rect width="48" height="48" fill="white" transform="translate(0 0.0585938)"/>
</clipPath>
</defs>
</svg>
