<svg width="48" height="48" viewBox="0 0 48 48" fill="none" xmlns="http://www.w3.org/2000/svg">
<g clip-path="url(#clip0_2291_1095)">
<path fill-rule="evenodd" clip-rule="evenodd" d="M48 24C48 37.2548 37.2548 48 24 48C10.7452 48 0 37.2548 0 24C0 10.7452 10.7452 0 24 0C37.2548 0 48 10.7452 48 24ZM24 47.7884C37.138 47.7884 47.7884 37.138 47.7884 24C47.7884 10.862 37.138 0.211593 24 0.211593C10.862 0.211593 0.211593 10.862 0.211593 24C0.211593 37.138 10.862 47.7884 24 47.7884Z" fill="#00043D"/>
<path d="M24.0312 47.7886H24.3584C37.3456 47.6135 47.8196 37.0311 47.8196 24.0024C47.8196 10.9086 37.2408 0.285711 24.1638 0.21431C24.1197 0.213884 24.0755 0.213673 24.0312 0.213673C17.0305 0.213672 11.3553 5.53867 11.3553 12.1074C11.3553 18.6761 17.0304 24.001 24.0311 24.0011C31.0318 24.0011 36.7071 29.3261 36.7071 35.8948C36.7071 42.4636 31.0319 47.7886 24.0312 47.7886Z" fill="#00043D"/>
<path d="M24.5923 38.5313L32.0449 40.4114L33.5938 39.4257V36.6512L33.8124 36.4686L31.5529 35.921L29.0748 35.4099V35.2456L30.3867 34.552V32.2521L30.6965 32.1608L29.8765 31.8505L29.8219 31.668L29.8765 31.6132L29.2388 31.1021L29.0201 31.1751L28.437 31.4854H28.0179L27.1069 31.9235V31.4854L27.2162 31.4672L27.1797 31.3212H26.7607V31.4124L26.8335 31.4672V32.0695L25.2118 32.8727H24.9567V32.6171L24.9932 32.5806V32.4711L24.6834 32.4346V33.0552L23.9545 32.7449L23.9363 32.4346H24.0092V32.2703L23.6812 32.2521V32.3799L23.7359 32.3981V32.6537L23.5354 32.5806L22.9523 32.8362V32.5076L23.0434 32.4894V32.3799L22.5515 32.3433V32.4529L22.6426 32.4711V32.8727L22.2053 33.0552L22.1688 32.8362H22.2053V32.7084L21.9319 32.6902V32.7632L21.9502 32.8362V33.6941L20.9662 33.4751V33.2925L20.8569 33.256L20.6018 33.3655L18.6338 32.891V32.0148L18.3058 31.96L18.2329 32.6902L16.3015 32.2156L15.8824 32.4346L15.7366 32.3799V32.3068L15.0988 32.1243L14.534 32.7632H14.6251V33.037L14.1878 33.2743V36.0305L17.8867 36.7789L15.7913 37.9289V40.959L18.652 41.7074L23.7905 38.5313H24.5923Z" fill="#00043D"/>
</g>
<defs>
<clipPath id="clip0_2291_1095">
<rect width="48" height="48" fill="white"/>
</clipPath>
</defs>
</svg>
