<svg width="48" height="48" viewBox="0 0 48 48" fill="none" xmlns="http://www.w3.org/2000/svg">
<g clip-path="url(#clip0_2291_1099)">
<path fill-rule="evenodd" clip-rule="evenodd" d="M48 24C48 37.2548 37.2548 48 24 48C10.7452 48 0 37.2548 0 24C0 10.7452 10.7452 0 24 0C37.2548 0 48 10.7452 48 24ZM24 47.7884C37.138 47.7884 47.7884 37.138 47.7884 24C47.7884 10.862 37.138 0.211593 24 0.211593C10.862 0.211593 0.211593 10.862 0.211593 24C0.211593 37.138 10.862 47.7884 24 47.7884Z" fill="#098CE7"/>
<path d="M24.0312 47.7886H24.3584C37.3456 47.6135 47.8196 37.0311 47.8196 24.0024C47.8196 10.9086 37.2408 0.285711 24.1638 0.21431C24.1197 0.213884 24.0755 0.213673 24.0312 0.213673C17.0305 0.213672 11.3553 5.53867 11.3553 12.1074C11.3553 18.6761 17.0304 24.001 24.0311 24.0011C31.0318 24.0011 36.7071 29.3261 36.7071 35.8948C36.7071 42.4636 31.0319 47.7886 24.0312 47.7886Z" fill="#098CE7"/>
<path fill-rule="evenodd" clip-rule="evenodd" d="M21.9534 29.569C21.9332 29.6087 21.7679 33.2014 21.5861 37.5529C21.1642 47.6522 21.1802 47.1673 21.266 47.2407C21.3956 47.3514 21.4241 47.0531 21.5404 44.3699C21.6034 42.9151 21.699 40.7827 21.7527 39.6313L21.8506 37.5379L22.3144 37.4837C22.9012 37.4152 23.5328 37.4641 25.1791 37.7054C27.1889 38 27.2114 37.9974 29.1643 37.2396C29.866 36.9673 29.964 36.9867 29.9977 37.404C30.0117 37.5783 30.1366 38.1217 30.2751 38.6115C30.4135 39.1014 30.5438 39.6702 30.5646 39.8756C30.6083 40.3078 30.5691 40.301 31.2153 39.9881C32.5084 39.3618 33.1569 38.2842 33.0695 36.9071C33.0668 36.8635 33.1436 36.8287 33.264 36.8189C34.071 36.7538 33.45 35.2086 32.0677 33.8424C31.8129 33.5906 31.4635 33.2453 31.2912 33.0751C29.7431 31.546 28.7737 31.0726 27.3299 31.1407C26.2788 31.1903 25.9841 31.1373 24.2292 30.5832C23.5459 30.3674 22.8097 30.148 22.5931 30.0955L22.1994 30.0001L22.1628 29.765C22.1263 29.5301 22.0226 29.433 21.9534 29.569Z" fill="#098CE7"/>
</g>
<defs>
<clipPath id="clip0_2291_1099">
<rect width="48" height="48" fill="white"/>
</clipPath>
</defs>
</svg>
