<svg width="48" height="48" viewBox="0 0 48 48" fill="none" xmlns="http://www.w3.org/2000/svg">
<g clip-path="url(#clip0_2275_655)">
<path fill-rule="evenodd" clip-rule="evenodd" d="M48 24C48 37.2548 37.2548 48 24 48C10.7452 48 0 37.2548 0 24C0 10.7452 10.7452 0 24 0C37.2548 0 48 10.7452 48 24ZM24 47.7884C37.138 47.7884 47.7884 37.138 47.7884 24C47.7884 10.862 37.138 0.211593 24 0.211593C10.862 0.211593 0.211593 10.862 0.211593 24C0.211593 37.138 10.862 47.7884 24 47.7884Z" fill="#546896"/>
<path d="M24.0315 47.7885H24.3587C37.3458 47.6134 47.8199 37.031 47.8199 24.0023C47.8199 10.9086 37.2411 0.285647 24.1641 0.214245C24.1199 0.213819 24.0757 0.213608 24.0315 0.213608C17.0308 0.213607 11.3556 5.53861 11.3556 12.1073C11.3556 18.676 17.0307 24.001 24.0313 24.001C31.032 24.0011 36.7074 29.3261 36.7074 35.8948C36.7074 42.4635 31.0322 47.7885 24.0315 47.7885Z" fill="#546896"/>
<path fill-rule="evenodd" clip-rule="evenodd" d="M27.707 27.6894C25.9474 28.0668 23.2234 29.8864 21.6509 31.7348C21.1114 32.3691 20.9374 32.775 20.8364 33.6356C20.7993 33.9512 20.6922 34.1789 20.4262 34.5072C20.2045 34.781 20.2102 34.7807 19.2549 34.5639C17.7492 34.2221 16.5587 34.725 16.7806 35.6091C16.801 35.6902 16.7604 35.8282 16.6693 35.9874C16.4626 36.3491 16.4841 36.7156 16.697 36.4591C16.8186 36.3126 17.2116 36.1389 17.4345 36.133C18.2469 36.1117 18.8463 38.6361 18.1152 38.9998C17.7877 39.1628 17.4796 39.7691 17.6062 40.0016C17.6706 40.1198 17.6724 40.12 17.7036 40.0095C17.7523 39.8371 17.9368 39.517 17.9689 39.5491C17.9846 39.5648 17.9701 39.6289 17.9366 39.6914C17.8602 39.8341 17.8577 40.0761 17.932 40.1221C17.963 40.1412 17.9883 40.1222 17.9883 40.0797C17.9883 39.8515 18.2585 39.4544 18.3677 39.522C18.5391 39.6279 18.4564 40.2065 18.2698 40.2065C18.1141 40.2065 18.0716 40.3179 18.2243 40.3258C18.4005 40.3348 18.3858 40.336 18.6076 40.2954L18.8046 40.2593L18.6216 40.3428C18.3688 40.4581 18.3862 40.5446 18.6498 40.4834C18.9806 40.4066 19.1316 40.4177 19.0938 40.5161C19.076 40.5626 19.086 40.6006 19.1159 40.6006C19.1459 40.6006 19.1705 40.7509 19.1705 40.9346C19.1705 41.1184 19.1979 41.34 19.2316 41.4272C19.2651 41.5143 19.3262 41.7503 19.3673 41.9515C19.5309 42.7525 19.9346 43.6965 20.0763 43.6089C20.1018 43.5932 20.1645 43.6612 20.2156 43.76C20.306 43.9347 20.8374 44.4846 20.9159 44.4846C20.9374 44.4846 21.0664 44.5669 21.2026 44.6675C21.3626 44.7856 21.5201 44.8525 21.6473 44.8563C21.7557 44.8596 22.0033 44.9144 22.1975 44.9783L22.5507 45.0943L22.7123 44.9583C22.8178 44.8696 22.9444 44.8223 23.0768 44.8223C23.1972 44.8223 23.2798 44.7948 23.2798 44.7548C23.2798 44.7023 23.2949 44.7023 23.3474 44.7548C23.5051 44.9125 23.6739 44.7996 23.6739 44.5363C23.6739 44.4583 23.7134 44.4283 23.8164 44.4283C24.0661 44.4283 24.3494 44.278 24.3494 44.1454C24.3494 44.0795 24.4264 43.9487 24.5205 43.8545C24.731 43.644 24.6939 43.5657 24.1414 43.0566C23.9442 42.875 23.4166 42.2897 22.969 41.7559L22.1551 40.7855L22.1423 40.3581C22.1286 39.8973 22.1586 39.8122 22.295 39.9254C22.3635 39.9822 22.4139 39.9836 22.5274 39.9319C22.6095 39.8945 22.756 39.8816 22.8657 39.9022C23.007 39.9287 23.0876 39.9127 23.1646 39.8429C23.2227 39.7905 23.3167 39.7543 23.3735 39.7626C23.5229 39.7845 23.7147 39.7088 23.7513 39.6133C23.7688 39.5679 23.8545 39.531 23.9431 39.531C24.0478 39.531 24.1596 39.4721 24.2666 39.3604C24.3986 39.2227 24.4606 39.1965 24.5879 39.2244C24.716 39.2525 24.7762 39.2263 24.9079 39.0855C25.0063 38.9801 25.126 38.9119 25.2123 38.9119C25.3601 38.9119 25.4773 38.8218 25.6271 38.5932C25.7007 38.4807 25.7454 38.4649 25.9044 38.4947C26.0671 38.5252 26.117 38.5056 26.2565 38.3563C26.3458 38.2606 26.479 38.1566 26.5523 38.125C26.7358 38.0461 26.8784 37.9535 27.0954 37.772C27.1972 37.6868 27.3139 37.6172 27.3548 37.6172C27.3956 37.6172 27.5024 37.5481 27.592 37.4637C27.6817 37.3792 27.8797 37.2656 28.032 37.2112C28.3147 37.1102 28.5713 36.9159 28.5713 36.8028C28.5713 36.7682 28.68 36.7108 28.8127 36.6753C29.1301 36.5904 29.3693 36.4005 29.3479 36.2503C29.3342 36.1544 29.3775 36.122 29.5943 36.0663C29.9732 35.9688 30.221 35.7795 30.1805 35.6182C30.1518 35.5038 30.1738 35.487 30.3972 35.4535C30.88 35.3811 31.174 35.0827 30.8678 34.9759C30.6596 34.9033 30.7299 34.8054 30.9919 34.8032C31.397 34.7998 31.9637 34.477 31.78 34.3542C31.7335 34.3232 31.6006 34.2974 31.4844 34.2969C31.3684 34.2964 31.2733 34.2712 31.2733 34.2408C31.2733 34.1853 31.3019 34.1759 31.7989 34.07C32.1632 33.9923 32.6807 33.7135 32.6807 33.5949C32.6807 33.5721 32.421 33.5697 32.1037 33.5895C31.2634 33.6419 31.1174 33.4658 31.9207 33.3687C32.3302 33.3192 33.0632 33.0945 33.2164 32.9714C33.3228 32.886 33.3187 32.8832 33.131 32.9116C32.4715 33.0113 31.7518 33.0192 31.8291 32.9258C31.8716 32.8745 31.9389 32.8325 31.9786 32.8325C32.1482 32.8325 33.4515 32.1773 33.3948 32.1206C33.3814 32.1072 33.1747 32.174 32.9355 32.269C32.551 32.4217 31.52 32.7199 31.3765 32.7199C31.2493 32.7199 31.4056 32.6138 31.6525 32.5325C32.0734 32.3939 32.5127 32.1325 32.8495 31.8199C33.1687 31.5238 33.0796 31.5293 32.6344 31.8331C31.7011 32.47 30.5303 32.8035 27.8413 33.1983C27.4863 33.2504 26.959 33.3693 26.6696 33.4625C26.3802 33.5557 26.1296 33.6182 26.1129 33.6014C26.0742 33.5629 26.383 32.9409 26.5396 32.7419C26.6043 32.6595 26.6574 32.5631 26.6574 32.5277C26.6574 32.4922 26.7461 32.3796 26.8545 32.2773C26.9629 32.1751 27.0682 32.0238 27.0886 31.9412C27.1088 31.8587 27.2078 31.6942 27.3086 31.5758C27.4093 31.4574 27.5064 31.302 27.5243 31.2305C27.5422 31.1591 27.6334 31.0187 27.7269 30.9186C27.8204 30.8185 27.9131 30.6699 27.9329 30.5884C27.9527 30.5069 28.041 30.3478 28.1294 30.235C28.2176 30.1222 28.2898 29.968 28.2898 29.8924C28.2898 29.8027 28.3701 29.683 28.5208 29.5476C28.7034 29.3837 28.745 29.3128 28.719 29.2092C28.6927 29.1045 28.7311 29.042 28.9101 28.8981C29.1757 28.6847 29.2058 28.514 28.9825 28.4878C28.8333 28.4703 28.8347 28.4675 29.069 28.313C29.3411 28.1337 29.3304 28.0478 29.0359 28.0478H28.8317L29.1495 27.716L28.9978 27.678C28.9143 27.657 28.7462 27.6533 28.6242 27.6696C28.5022 27.686 28.3883 27.6764 28.371 27.6484C28.3289 27.5804 28.1693 27.5903 27.707 27.6894ZM18.7397 40.0569C18.627 40.1202 18.589 40.0723 18.6356 39.9254C18.6721 39.8104 18.6775 39.8096 18.7489 39.9071C18.8122 39.9935 18.8108 40.0169 18.7397 40.0569ZM18.9266 40.2441C18.9059 40.2647 18.8721 40.2647 18.8515 40.2441C18.8309 40.2234 18.8478 40.2065 18.889 40.2065C18.9303 40.2065 18.9472 40.2234 18.9266 40.2441Z" fill="#546896"/>
</g>
<defs>
<clipPath id="clip0_2275_655">
<rect width="48" height="48" fill="white"/>
</clipPath>
</defs>
</svg>
