<svg width="48" height="48" viewBox="0 0 48 48" fill="none" xmlns="http://www.w3.org/2000/svg">
<g clip-path="url(#clip0_2295_12)">
<path fill-rule="evenodd" clip-rule="evenodd" d="M48 24C48 37.2548 37.2548 48 24 48C10.7452 48 0 37.2548 0 24C0 10.7452 10.7452 0 24 0C37.2548 0 48 10.7452 48 24ZM24 47.7884C37.138 47.7884 47.7884 37.138 47.7884 24C47.7884 10.862 37.138 0.211593 24 0.211593C10.862 0.211593 0.211593 10.862 0.211593 24C0.211593 37.138 10.862 47.7884 24 47.7884Z" fill="#0A33BA"/>
<path d="M24.0312 47.7886H24.3584C37.3456 47.6135 47.8196 37.0311 47.8196 24.0024C47.8196 10.9086 37.2408 0.285711 24.1638 0.21431C24.1197 0.213884 24.0755 0.213673 24.0312 0.213673C17.0305 0.213672 11.3553 5.53867 11.3553 12.1074C11.3553 18.6761 17.0304 24.001 24.0311 24.0011C24.0311 24.0011 24.031 24.0011 24.0311 24.0011C31.0318 24.0011 36.7071 29.3261 36.7071 35.8948C36.7071 42.4636 31.0319 47.7886 24.0312 47.7886Z" fill="#0A33BA"/>
<path fill-rule="evenodd" clip-rule="evenodd" d="M17.6348 40.1978C17.6366 40.1407 17.6328 40.0813 17.6207 40.0222C17.5985 39.9134 17.5798 39.8459 17.5617 39.7806C17.5313 39.6712 17.5027 39.568 17.4624 39.2866C17.4453 39.1676 17.4241 38.9762 17.3985 38.7455C17.3275 38.1053 17.2229 37.1628 17.0811 36.6258C17.0452 36.4897 17.0084 36.3433 16.9709 36.1942C16.8072 35.5427 16.6301 34.8381 16.4533 34.7057L16.0735 34.4211C16.0375 34.3941 16.009 34.3586 15.9914 34.3173C15.9154 34.1378 15.7908 33.8104 15.7419 33.5557C15.6726 33.1953 15.6376 32.2129 15.7412 31.9512C15.8447 31.6895 16.5951 31.6349 16.9555 31.689C17.1126 31.7126 17.2377 31.6772 17.3796 31.637C17.5633 31.585 17.7751 31.525 18.1206 31.575C18.1549 31.5799 18.1968 31.5859 18.2453 31.5929C19.0608 31.7101 21.7566 32.0974 22.3765 32.3581C22.7135 32.4998 22.875 32.6156 22.9938 32.7008C23.1064 32.7815 23.1805 32.8347 23.3295 32.8563C23.4678 32.8763 23.7489 32.8902 24.0458 32.9048C24.4063 32.9227 24.7899 32.9416 24.9686 32.974C25.1852 33.0133 25.5782 33.1621 25.8342 33.2669C25.9195 33.3018 25.9789 33.3797 25.992 33.471L26.0194 33.6625L26.4181 33.2551C26.8972 32.7655 28.34 31.8498 28.8015 31.8906C29.0681 31.9142 29.2568 31.8463 29.4042 31.7933C29.5121 31.7545 29.5978 31.7237 29.6759 31.7422C29.8608 31.7862 33.1286 35.7595 33.4332 36.2401C33.489 36.3281 33.5496 36.4254 33.613 36.5273C33.8955 36.9814 34.2347 37.5263 34.4629 37.7496C34.5915 37.8754 34.7008 38.0025 34.7809 38.1038C34.8577 38.201 34.8446 38.3377 34.7579 38.4263L34.3339 38.8596C34.3052 38.8889 34.2701 38.911 34.2316 38.9251C34.1334 38.9613 33.9989 39.0156 33.969 39.0461L33.6499 39.3724C33.5798 39.4439 33.4754 39.4698 33.38 39.4392L33.217 39.3869C33.1542 39.3668 33.0861 39.3708 33.0261 39.3983L32.7509 39.5243C32.7215 39.5379 32.6947 39.5567 32.672 39.5798L32.4912 39.7646C32.4531 39.8036 32.4038 39.8299 32.3501 39.8397L31.211 40.0497C31.1402 40.0627 31.0676 40.0405 31.0162 39.9902C30.9529 39.9283 30.8589 39.9099 30.7775 39.9447C30.528 40.0511 30.1698 40.2118 30.0631 40.2898C29.9625 40.3634 29.8273 40.4705 29.7369 40.5433C29.696 40.5762 29.6464 40.5966 29.5942 40.6016L29.3117 40.6284C29.1982 40.6392 29.0842 40.5796 29.0244 40.4827C28.9088 40.2953 28.6994 39.9638 28.4401 39.5531C28.062 38.9543 27.5775 38.1871 27.1221 37.4527C27.1155 37.5402 27.1069 37.6016 27.0986 37.6407C27.0932 37.6659 27.0808 37.6882 27.0654 37.7088L26.0968 39.0015C25.81 39.3843 25.7216 39.443 25.6061 39.5199C25.5547 39.554 25.4979 39.5918 25.4158 39.6633C25.24 39.8165 25.014 39.9376 24.8747 40.0013C24.8257 40.0236 24.771 40.0272 24.7185 40.0157C24.3349 39.9322 23.6469 39.8204 23.4264 39.9307C23.1302 40.079 22.1973 40.3361 21.906 40.3955C21.6148 40.4548 19.6647 40.5051 19.0427 40.4708C18.6554 40.4494 18.4344 40.4705 18.3321 40.4925C18.292 40.5011 18.2606 40.5287 18.2308 40.5569C18.1938 40.592 18.143 40.6269 18.0949 40.6242C18.0691 40.6228 18.0096 40.6183 17.9369 40.6126C17.7489 40.5977 17.629 40.3863 17.6348 40.1978Z" fill="#0A33BA"/>
</g>
<defs>
<clipPath id="clip0_2295_12">
<rect width="48" height="48" fill="white"/>
</clipPath>
</defs>
</svg>
