<svg width="48" height="48" viewBox="0 0 48 48" fill="none" xmlns="http://www.w3.org/2000/svg">
<g clip-path="url(#clip0_2288_850)">
<path fill-rule="evenodd" clip-rule="evenodd" d="M48.001 24.0586C48.001 37.3134 37.2558 48.0586 24.001 48.0586C10.7461 48.0586 0.000976562 37.3134 0.000976562 24.0586C0.000976562 10.8038 10.7461 0.0585938 24.001 0.0585938C37.2558 0.0585938 48.001 10.8038 48.001 24.0586ZM24.001 47.847C37.139 47.847 47.7894 37.1966 47.7894 24.0586C47.7894 10.9206 37.139 0.270187 24.001 0.270187C10.863 0.270187 0.21257 10.9206 0.21257 24.0586C0.21257 37.1966 10.863 47.847 24.001 47.847Z" fill="#1C87AB"/>
<path d="M24.0324 47.8471H24.3596C37.3468 47.6721 47.8209 37.0897 47.8209 24.0609C47.8209 10.9672 37.242 0.344305 24.1651 0.272904C24.1209 0.272477 24.0767 0.272266 24.0324 0.272266C17.0317 0.272266 11.3566 5.59726 11.3566 12.166C11.3566 18.7347 17.0317 24.0596 24.0323 24.0597C31.033 24.0597 36.7083 29.3847 36.7083 35.9534C36.7083 42.5222 31.0331 47.8471 24.0324 47.8471Z" fill="#1C87AB"/>
<path d="M19.6367 37.2001C19.6738 37.0887 19.809 36.7555 19.8816 36.5793C19.8884 36.5629 19.8855 36.5444 19.8741 36.5309C19.6212 36.2316 19.1547 35.5943 19.1737 35.2702C19.1981 34.8549 19.4418 34.7084 19.5027 34.4152C19.5636 34.1221 19.5271 34.1098 19.6367 33.6701C19.723 33.3241 20.0128 32.8474 20.1537 32.642C20.1583 32.6353 20.1645 32.6301 20.1719 32.6265L20.9821 32.2381C20.9944 32.2322 21.0035 32.2213 21.0071 32.2082L21.0563 32.0307C21.0601 32.017 21.0699 32.0057 21.083 32.0001L21.1172 31.9854C21.1354 31.9776 21.1468 31.959 21.1456 31.9392C21.1238 31.5854 21.1315 31.6444 21.0014 31.3005C20.8674 30.9463 20.9526 30.9585 20.9526 30.6898C20.9526 30.4211 21.1232 30.3967 21.2816 30.1524C21.3924 29.9815 21.7162 29.9352 21.9207 29.9316C21.9565 29.931 21.9806 29.8933 21.9637 29.8617C21.9202 29.7805 21.8529 29.6617 21.7812 29.5539C21.6593 29.3708 21.769 28.9799 22.0736 28.931C22.3782 28.8821 22.3173 29.444 22.3173 29.5539C22.3173 29.6291 22.2758 29.8106 22.246 29.9279C22.2388 29.956 22.2584 29.9852 22.2846 29.9977C22.3418 30.0252 22.4062 30.0823 22.4587 30.1369C22.4882 30.1675 22.5582 30.1515 22.5906 30.124C22.651 30.0726 22.7433 30.066 22.7681 30.1158C22.8047 30.1891 22.7316 30.7875 22.7316 30.9097C22.7316 31.0318 22.8168 31.6548 22.8168 31.7403C22.8168 31.8258 22.7437 31.8014 22.695 31.8014C22.6463 31.8014 22.7559 31.9113 22.8168 32.009C22.8778 32.1067 22.7437 32.0701 22.695 32.0701C22.6617 32.0701 22.6497 32.1948 22.647 32.2845C22.6462 32.3085 22.6283 32.3286 22.6044 32.3312L22.4277 32.3509C22.3864 32.3555 22.3709 32.4075 22.4029 32.4339L22.9216 32.8621C22.9324 32.8711 22.9387 32.8843 22.9387 32.8984V33.0299C22.9387 33.0333 22.939 33.0365 22.9397 33.0398C22.988 33.2635 23.0243 33.8557 23.0727 34.1709C23.1215 34.4885 23.292 35.0015 23.3408 35.3313C23.3895 35.6611 23.4139 37.7375 23.4139 38.0307C23.4139 38.2212 23.3603 38.3118 23.3184 38.3456C23.304 38.3572 23.2907 38.3724 23.2869 38.3905C23.2472 38.5784 23.0757 38.7005 22.969 38.7506C22.951 38.759 22.939 38.7766 22.9394 38.7964C22.9433 39.0015 22.9479 39.4413 22.9387 39.8018C22.9265 40.2781 22.89 40.7056 22.829 40.9011C22.7681 41.0965 22.8047 41.3774 22.7437 41.866C22.6828 42.3546 22.6706 43.2951 22.6706 43.6615C22.6706 44.0279 22.8778 44.1257 23.1702 44.2356C23.359 44.3065 23.5764 44.3134 23.7109 44.3048C23.7469 44.3025 23.7742 44.3386 23.7536 44.3683C23.5739 44.6275 23.0756 44.5607 22.6706 44.5043C22.232 44.4432 22.366 44.5043 22.0858 44.5043C21.8055 44.5043 21.8665 44.4188 21.8421 44.0768C21.8177 43.7348 21.8421 43.0386 21.7446 42.6721C21.6471 42.3057 21.7202 40.8522 21.6837 40.4858C21.6471 40.1193 21.3791 39.7041 21.2816 39.5575C21.1841 39.4109 21.2572 39.643 21.1841 39.9239C21.111 40.2048 21.1598 40.3148 21.1232 40.5468C21.0867 40.7789 20.9526 40.7789 20.8917 40.9743C20.8438 41.128 20.9097 42.8129 20.9505 43.6784C20.9517 43.7035 20.9724 43.7224 20.9973 43.7254C21.0731 43.7347 21.172 43.7686 21.172 43.8569C21.172 43.9913 21.0379 44.0646 20.8917 44.2966C20.7455 44.5287 20.5262 44.431 20.3678 44.4188C20.2094 44.4066 20.2338 44.089 20.2216 43.7226C20.2094 43.3561 20.1363 43.1485 20.0145 42.5378C19.8926 41.9271 19.8926 41.4263 19.9535 40.7789C20.0145 40.1316 19.8926 38.5315 19.8926 38.2261C19.8926 37.9208 18.4305 40.3392 18.2112 40.7056C17.9918 41.0721 17.6507 42.0981 17.5654 41.7439C17.4801 41.3896 17.6141 41.4873 17.9431 40.6201C18.2721 39.7529 19.7464 37.9086 19.8195 37.8108C19.8926 37.7131 19.8926 37.4566 19.8195 37.3345C19.7464 37.2123 19.588 37.3467 19.6367 37.2001Z" fill="#1C87AB"/>
<path d="M26.8697 28.4611C26.9291 28.385 27.0477 28.3501 27.1381 28.3449C27.1668 28.3432 27.1917 28.3207 27.1917 28.2918V27.7418C27.1917 27.4335 27.4493 27.4206 27.3978 27.3564C27.3463 27.2921 27.3592 27.2793 27.3334 26.9967C27.3076 26.7141 27.372 26.6242 27.5266 26.6113C27.6811 26.5985 27.8357 26.7655 27.7198 26.9967C27.6519 27.1321 27.6167 27.239 27.601 27.3034C27.5942 27.3315 27.616 27.3564 27.6449 27.3564H28.338C28.7373 27.3564 28.7759 27.4591 28.8274 27.8445C28.8789 28.2299 28.8918 28.5767 28.7759 28.7309C28.6985 28.8338 28.6755 29.0752 28.6725 29.2368C28.6719 29.2745 28.7152 29.2988 28.7527 29.2947C28.7956 29.29 28.8365 29.299 28.8656 29.3099C28.8823 29.3162 28.8918 29.3328 28.8918 29.3506V29.6603C28.8918 29.6738 28.8972 29.6866 28.907 29.6958C29.0065 29.79 29.5661 30.3236 29.7419 30.5807C29.935 30.8633 29.8964 31.1459 29.9737 32.0965C30.051 33.0471 30.1025 33.2783 30.0381 33.638C29.9885 33.9149 29.8873 34.943 29.8377 35.4782C29.8347 35.5095 29.8034 35.5296 29.7729 35.5219C29.7157 35.5076 29.6601 35.5016 29.6903 35.5392C29.7305 35.5893 29.6761 35.9033 29.6415 36.066C29.6398 36.0744 29.6402 36.083 29.6428 36.0912C30.1425 37.657 30.4117 39.7535 30.4502 40.0738C30.4889 40.395 30.4245 40.4335 30.3085 40.4335C30.1926 40.4335 30.1798 39.6628 29.9866 38.6865C29.8742 38.1188 29.7369 37.58 29.639 37.2261C29.624 37.1721 29.5487 37.183 29.5487 37.2391V38.0194C29.5487 38.035 29.5563 38.0496 29.5685 38.0593C29.7308 38.1883 29.5892 38.2259 29.6388 38.2754C29.6795 38.316 29.5647 40.4769 29.4998 41.5958C29.4983 41.6216 29.4769 41.641 29.4511 41.641H29.0544C29.0341 41.641 29.0148 41.6272 28.996 41.6191C28.9503 41.5996 28.8378 41.6027 28.6085 41.7053C28.235 41.8723 27.9259 41.7823 27.6811 41.808C27.4364 41.8337 27.4107 41.6667 27.5395 41.641C27.5967 41.6296 27.7015 41.5913 27.8033 41.5507C27.8523 41.5311 27.8383 41.4528 27.7857 41.448C27.5721 41.4285 27.2994 41.3855 27.2819 41.307C27.2561 41.1914 27.5395 41.23 27.6811 41.1786C27.8228 41.1272 28.2607 40.9345 28.338 40.8317C28.4153 40.729 28.1577 38.147 28.016 38.0442C27.8743 37.9414 27.7584 37.8387 27.7713 37.3505C27.7842 36.8624 27.6554 36.5798 27.5395 36.2072C27.4235 35.8347 27.372 35.4108 27.372 35.1924C27.372 34.974 27.1788 35.0511 27.0887 34.9612C26.9985 34.8712 27.0114 34.3317 27.0887 33.8179C27.166 33.304 27.1144 32.8544 27.0114 32.6232C26.9084 32.392 26.8955 31.9809 26.8826 31.7111C26.8741 31.5333 26.8475 31.4188 26.8289 31.3649C26.8231 31.3483 26.8075 31.338 26.7899 31.3371C26.5361 31.3237 26.0575 31.2971 25.9682 31.2872C25.8523 31.2744 25.7235 31.0689 25.6333 30.9147C25.5432 30.7606 25.6204 30.4908 25.6333 30.2981C25.6433 30.1487 25.9606 29.6573 26.1326 29.4089C26.1424 29.3947 26.1441 29.3764 26.1369 29.3607L26.0992 29.2779C26.0902 29.2582 26.0952 29.235 26.1114 29.2208C26.1879 29.1535 26.3166 29.0385 26.3803 28.975C26.3863 28.969 26.3921 28.9639 26.3978 28.9594C26.4346 28.9305 26.5405 28.8783 26.5578 28.8348C26.6342 28.6427 26.7956 28.5563 26.8697 28.4611Z" fill="#1C87AB"/>
</g>
<defs>
<clipPath id="clip0_2288_850">
<rect width="48" height="48" fill="white" transform="translate(0 0.0585938)"/>
</clipPath>
</defs>
</svg>
