<svg width="48" height="48" viewBox="0 0 48 48" fill="none" xmlns="http://www.w3.org/2000/svg">
<g clip-path="url(#clip0_2277_765)">
<path fill-rule="evenodd" clip-rule="evenodd" d="M48 24C48 37.2548 37.2548 48 24 48C10.7452 48 0 37.2548 0 24C0 10.7452 10.7452 0 24 0C37.2548 0 48 10.7452 48 24ZM24 47.7884C37.138 47.7884 47.7884 37.138 47.7884 24C47.7884 10.862 37.138 0.211593 24 0.211593C10.862 0.211593 0.211593 10.862 0.211593 24C0.211593 37.138 10.862 47.7884 24 47.7884Z" fill="#336AD1"/>
<path d="M24.0317 47.7886H24.3589C37.3461 47.6135 47.8201 37.0311 47.8201 24.0024C47.8201 10.9086 37.2413 0.285711 24.1644 0.21431C24.1202 0.213884 24.076 0.213673 24.0317 0.213673C17.031 0.213672 11.3558 5.53867 11.3558 12.1074C11.3558 18.6761 17.0309 24.001 24.0316 24.0011V24.0011C31.0323 24.0011 36.7076 29.3261 36.7076 35.8948C36.7076 42.4636 31.0324 47.7886 24.0317 47.7886Z" fill="#336AD1"/>
<path fill-rule="evenodd" clip-rule="evenodd" d="M25.6688 27.4755C25.5217 27.5629 25.4853 28.1234 25.6182 28.2558C25.7741 28.4112 25.5923 28.8278 25.3505 28.8695C25.1075 28.9113 25.1107 28.9007 24.8049 30.6747C24.6181 31.7579 24.6524 32.0653 24.9534 32.0053C25.2242 31.9513 25.2287 31.974 25.1776 33.1352C25.1374 34.0475 24.4512 34.7484 24.2558 34.0767C24.1107 33.5781 24.1037 32.8982 24.2413 32.6815C24.3871 32.452 24.3871 32.452 24.2255 32.1722C24.1367 32.0183 24.064 31.7979 24.064 31.6826C24.064 31.3999 23.9413 31.2963 23.6066 31.2963C23.4173 31.2963 23.3262 31.2633 23.3262 31.1947C23.3262 31.1388 23.2122 31.0064 23.0729 30.9005C22.659 30.5858 22.2431 30.6846 22.3452 31.0735C22.3845 31.2238 22.3715 31.2391 22.2498 31.1861C21.7249 30.9574 21.379 31.377 21.6487 31.9153C21.7113 32.0401 21.8107 32.2911 21.8697 32.4732C21.9287 32.6552 21.9995 32.8558 22.0269 32.9188C22.0901 33.0638 21.8189 33.3877 21.679 33.3342C21.6229 33.3127 21.4842 33.0026 21.3709 32.6451C21.2576 32.2876 21.0885 31.8211 20.9952 31.6086C20.8128 31.1931 20.8312 31.2052 19.8585 30.8637C19.3051 30.6695 19.3051 30.6695 19.3051 30.388C19.3051 29.9791 19.086 29.8252 18.5038 29.8251C18.2547 29.8251 17.8057 29.7741 17.5061 29.7118C15.9566 29.3895 15.3313 30.1639 15.1579 32.6203C15.1098 33.3012 15.1761 33.3796 15.9672 33.5767C17.7622 34.0239 19.342 33.3383 19.342 32.1121C19.342 31.7757 19.4235 31.7907 19.8794 32.2103C20.1896 32.4958 20.3012 32.6503 20.3012 32.7945C20.3012 32.9023 20.3843 33.4068 20.4858 33.9155C20.6933 34.955 20.6941 34.9498 20.317 35.0179C19.7147 35.1266 19.5047 35.3231 19.2639 36.0039C19.1708 36.2668 19.0342 36.5698 18.9601 36.6772C18.7923 36.9207 18.7901 37.1481 18.9491 37.8258C19.0746 38.3607 19.0746 38.3607 18.8482 38.5614C18.6285 38.7562 17.6583 40.0076 17.3808 40.454C17.3053 40.5753 17.1232 40.8236 16.9762 41.0056C16.7105 41.3344 16.3908 41.8295 16.3908 41.9119C16.3908 41.9483 17.0239 42.2561 17.0988 42.2561C17.1127 42.2561 17.239 42.077 17.3794 41.8581C17.9622 40.9498 20.0587 38.8145 20.6297 38.5476C20.8345 38.4519 21.1516 38.3048 21.3343 38.2207C22.2861 37.783 24.1858 37.7196 26.2865 38.0554C26.7205 38.1249 26.9552 38.2226 27.1727 38.4246C27.2442 38.4909 27.486 38.6074 27.7102 38.6833C28.4407 38.9309 31.147 41.892 31.147 42.4438C31.147 42.6182 31.6448 43.5572 31.7607 43.6016C31.8918 43.6517 32.3283 43.3942 32.3253 43.2686C32.3048 42.4102 31.691 41.2364 30.6579 40.0801C30.2574 39.6317 29.747 39.0582 29.5238 38.8056C29.1337 38.364 28.246 37.6489 27.7613 37.3858C27.6336 37.3164 27.5171 37.2171 27.5023 37.1651C27.4876 37.113 27.3825 36.7229 27.2689 36.2981C26.9942 35.2716 26.7573 34.7055 26.4913 34.4404C26.2639 34.2137 26.2227 31.7033 26.437 31.1375C26.4885 31.0018 26.486 30.8949 26.4289 30.7888C26.2812 30.5136 26.5135 30.193 26.8606 30.193C27.7225 30.193 27.4308 29.0706 26.5367 28.9466C26.1773 28.8967 26.145 28.7908 26.3197 28.2368C26.5064 27.6453 26.128 27.2027 25.6688 27.4755ZM25.9823 28.6483C25.9823 28.6887 25.9491 28.7218 25.9086 28.7218C25.868 28.7218 25.8348 28.6887 25.8348 28.6483C25.8348 28.6078 25.868 28.5747 25.9086 28.5747C25.9491 28.5747 25.9823 28.6078 25.9823 28.6483ZM26.247 29.2472C26.2704 29.2848 26.1899 29.4716 26.0682 29.6623C25.8298 30.036 25.5562 30.6005 25.3315 31.1826C25.1174 31.7369 24.9895 31.7178 25.0498 31.1407C25.1107 30.5585 25.4381 29.2257 25.5351 29.166C25.6382 29.1024 26.1968 29.1661 26.247 29.2472ZM17.5897 30.0497C17.8498 30.1217 17.8664 30.1437 17.8664 30.4171C17.8664 30.734 18.0627 31.0021 18.2946 31.0021C19.2161 31.0021 19.3881 32.3431 18.5304 32.8406C16.9397 33.7632 15.5054 33.3258 15.714 31.9816C15.7631 31.6654 15.8159 31.2908 15.8314 31.1492C15.938 30.1741 16.5827 29.7709 17.5897 30.0497ZM19.1984 30.767C19.3788 30.8804 19.6925 31.0476 19.8954 31.1386C20.0983 31.2296 20.3473 31.3444 20.4487 31.3937C20.7991 31.5639 21.5983 33.5887 21.5352 34.1462C21.4937 34.5129 21.6749 34.7927 21.9097 34.7246C22.2637 34.6219 22.7324 34.5992 22.8793 34.6776C23.1901 34.8435 23.2262 35.2683 22.9293 35.2683C22.043 35.2683 21.3571 35.7702 21.4498 36.3508C21.5351 36.8845 21.2177 37.0398 20.8107 36.6634C20.2286 36.1249 20.1692 36.1139 19.6863 36.4554C19.2345 36.7749 19.2218 36.8106 19.3492 37.4029C19.4489 37.8662 19.3977 37.9374 19.1987 37.612C18.9922 37.2743 19.003 37.1813 19.3464 36.3363C19.735 35.3801 19.7981 35.3098 20.3791 35.1854C20.9562 35.0618 20.9801 34.988 20.7541 34.0265C20.6722 33.6779 20.5504 33.1554 20.4836 32.8654C20.3637 32.3451 20.3547 32.332 19.7967 31.8601C18.8924 31.0954 18.5465 30.7156 18.6783 30.6326C18.8313 30.5361 18.8312 30.5361 19.1984 30.767ZM26.0856 31.2789C26.0816 31.3289 26.0733 31.4675 26.0672 31.5867C26.0566 31.7946 26.0471 31.8004 25.8348 31.7266C25.5806 31.6382 25.5667 31.5828 25.7348 31.3271C25.8565 31.1419 26.0994 31.1085 26.0856 31.2789ZM22.3671 31.6577C22.3671 31.7713 22.1616 32.0327 22.138 31.9489C22.0581 31.6643 22.1103 31.3851 22.2315 31.4498C22.306 31.4896 22.3671 31.5831 22.3671 31.6577ZM23.1271 31.848C23.119 31.9289 23.0902 32.149 23.063 32.337C23.0172 32.654 23.0284 32.6887 23.2164 32.8115C23.5231 33.0118 23.7989 32.6858 23.727 32.2078C23.6866 31.9395 23.6986 31.8847 23.7974 31.8847C23.8647 31.8847 23.9165 31.9448 23.9165 32.0229C23.9165 32.0988 23.9663 32.2021 24.0271 32.2525C24.1775 32.377 24.1661 32.4983 23.9892 32.658C23.9075 32.7317 23.8548 32.8445 23.8723 32.9085C24.0901 33.7075 23.9834 33.8641 23.5296 33.411C23.3573 33.2391 23.1166 33.0454 22.9946 32.9808C22.5074 32.7223 22.3581 32.0629 22.7082 31.7158C22.83 31.5952 23.1425 31.6937 23.1271 31.848ZM25.6989 32.1501C25.6849 32.2266 25.6694 32.3721 25.6644 32.4732C25.6557 32.6475 25.5696 32.7638 25.4474 32.7663C25.3636 32.768 25.3813 32.263 25.4709 32.0961C25.5668 31.9174 25.7339 31.957 25.6989 32.1501ZM23.5349 32.3666C23.5216 32.4797 23.4692 32.5857 23.4185 32.6023C23.279 32.648 23.2219 32.4146 23.32 32.1998C23.4291 31.9613 23.5698 32.0705 23.5349 32.3666ZM26.1151 33.2137C26.1481 34.0312 26.1163 34.1044 25.7401 34.0771C25.2971 34.0451 25.2041 33.2835 25.6286 33.1628C25.8319 33.1051 25.8755 33.0543 25.8951 32.8526C25.9396 32.3946 26.0921 32.6449 26.1151 33.2137ZM25.7041 33.4432C25.7497 33.5796 25.9086 33.6022 25.9086 33.4723C25.9086 33.4083 25.856 33.3559 25.7918 33.3559C25.7275 33.3559 25.688 33.3951 25.7041 33.4432ZM25.728 33.7909C25.7043 33.8293 25.7163 33.8799 25.7547 33.9036C25.7932 33.9273 25.844 33.9153 25.8678 33.877C25.8915 33.8387 25.8795 33.788 25.8411 33.7643C25.8026 33.7406 25.7518 33.7526 25.728 33.7909ZM25.2445 34.7166C25.194 34.7773 25.1246 34.827 25.0903 34.827C25.0559 34.827 25.0469 34.7773 25.0703 34.7166C25.0936 34.656 25.1631 34.6063 25.2245 34.6063C25.3156 34.6063 25.3193 34.6268 25.2445 34.7166ZM25.4268 35.0775C25.3582 35.1818 25.3233 35.3221 25.3491 35.3893C25.5083 35.8029 25.1102 36.2981 24.6184 36.2981C24.3588 36.2981 24.1215 36.3562 23.8768 36.4796C23.5432 36.6481 23.5075 36.6526 23.3848 36.5418C23.2124 36.3863 23.2155 36.2245 23.391 36.2245C23.4671 36.2245 23.5729 36.1725 23.6258 36.1088C23.6788 36.0452 23.8489 35.9287 24.0037 35.8499C24.3282 35.6849 24.3189 35.7114 24.1737 35.365C23.9685 34.8754 24.164 34.9411 24.4356 35.4531C24.7548 36.0548 24.7828 36.0941 24.8338 36.0119C24.8606 35.9687 24.8466 35.8665 24.8026 35.7847C24.7395 35.6671 24.7454 35.6361 24.8308 35.6361C24.9948 35.6361 25.1708 35.4261 25.1708 35.2304C25.1708 35.1344 25.2433 35.0053 25.3323 34.9432C25.5455 34.7943 25.5803 34.8438 25.4268 35.0775ZM25.9086 35.4522C25.9086 35.4724 25.892 35.489 25.8717 35.489C25.8514 35.489 25.8348 35.4724 25.8348 35.4522C25.8348 35.432 25.8514 35.4154 25.8717 35.4154C25.892 35.4154 25.9086 35.432 25.9086 35.4522ZM22.6622 35.7832C22.6622 35.8237 22.6003 35.8568 22.5246 35.8568C22.4489 35.8568 22.3026 35.923 22.1993 36.0039C21.9762 36.1788 21.9244 36.1866 21.9244 36.0448C21.9244 35.9864 21.9981 35.8871 22.0884 35.8242C22.2709 35.6967 22.6622 35.6687 22.6622 35.7832ZM24.6908 36.6653C24.7395 36.7438 24.4129 37.1072 24.2936 37.1072C23.7829 37.1072 23.7137 36.7249 24.2122 36.6585C24.3945 36.6342 24.5665 36.6095 24.5946 36.6033C24.6226 36.5973 24.6659 36.6251 24.6908 36.6653ZM25.6887 36.7044C25.7401 36.766 25.7621 36.8364 25.7378 36.8606C25.6623 36.936 25.4659 36.8235 25.4659 36.7049C25.4659 36.5609 25.569 36.5606 25.6887 36.7044ZM21.1866 37.4382C21.1866 37.4989 21.1368 37.5485 21.0759 37.5485C21.015 37.5485 20.9652 37.4989 20.9652 37.4382C20.9652 37.3775 21.015 37.3279 21.0759 37.3279C21.1368 37.3279 21.1866 37.3775 21.1866 37.4382Z" fill="#336AD1"/>
</g>
<defs>
<clipPath id="clip0_2277_765">
<rect width="48" height="48" fill="white"/>
</clipPath>
</defs>
</svg>
