<svg width="48" height="48" viewBox="0 0 48 48" fill="none" xmlns="http://www.w3.org/2000/svg">
<g clip-path="url(#clip0_2288_882)">
<path fill-rule="evenodd" clip-rule="evenodd" d="M47.999 24.0586C47.999 37.3134 37.2539 48.0586 23.999 48.0586C10.7442 48.0586 -0.000976562 37.3134 -0.000976562 24.0586C-0.000976562 10.8038 10.7442 0.0585938 23.999 0.0585938C37.2539 0.0585938 47.999 10.8038 47.999 24.0586ZM23.999 47.847C37.137 47.847 47.7874 37.1966 47.7874 24.0586C47.7874 10.9206 37.137 0.270187 23.999 0.270187C10.861 0.270187 0.210617 10.9206 0.210617 24.0586C0.210617 37.1966 10.861 47.847 23.999 47.847Z" fill="#212D97"/>
<path d="M24.0305 47.8471H24.3577C37.3448 47.6721 47.8189 37.0897 47.8189 24.0609C47.8189 10.9672 37.2401 0.344305 24.1631 0.272904C24.119 0.272477 24.0748 0.272266 24.0305 0.272266C17.0298 0.272266 11.3546 5.59726 11.3546 12.166C11.3546 18.7347 17.0297 24.0596 24.0303 24.0597C31.031 24.0597 36.7064 29.3847 36.7064 35.9534C36.7064 42.5222 31.0312 47.8471 24.0305 47.8471Z" fill="#212D97"/>
<path d="M22.1426 44.9405L21.8444 45.8279C20.52 44.7018 18.1542 44.2725 17.1369 44.1985C17.0912 44.0912 17.0531 43.8033 17.2662 43.5098C17.5325 43.143 16.7973 43.2024 16.0253 41.5875C15.2533 39.9727 15.5794 38.0593 15.6067 37.3295C15.6339 36.5996 15.6088 36.4413 15.9307 36.3043C16.2526 36.1672 16.4162 36.0553 16.487 36.3209C16.5579 36.5865 16.9864 36.6998 17.0997 36.2714C17.2131 35.8429 17.4932 36.1039 18.4727 36.3206C19.2563 36.494 21.7644 37.271 22.9206 37.6379C23.1535 37.7218 23.2349 37.6815 21.6974 36.8489C20.1599 36.0163 19.3236 34.0851 19.2347 33.5456L19.4501 33.1582C19.6216 33.2964 20.0523 33.62 20.403 33.8087C20.8415 34.0446 21.1276 33.9228 22.0356 34.1699C22.9436 34.4171 23.0151 34.3867 23.6947 34.0973C24.3743 33.808 27.1025 32.7732 28.4875 32.0568C29.5955 31.4837 30.5293 29.9059 30.8577 29.1887L31.1598 28.8065C31.516 29.2464 31.9183 31.7792 31.7572 32.9885C31.6283 33.956 30.9195 35.3873 30.5812 35.982C30.8949 37.1159 29.4376 38.1588 28.6044 38.6826C27.9377 39.1016 26.7741 39.1802 26.2756 39.167C26.9161 39.4013 27.3169 39.8926 27.4372 40.109C27.098 41.0984 25.4955 43.0905 24.6821 43.8593C24.0313 44.4744 22.7179 44.8364 22.1426 44.9405Z" fill="#212D97"/>
</g>
<defs>
<clipPath id="clip0_2288_882">
<rect width="48" height="48" fill="white" transform="translate(0 0.0585938)"/>
</clipPath>
</defs>
</svg>
