<svg width="48" height="49" viewBox="0 0 48 49" fill="none" xmlns="http://www.w3.org/2000/svg">
<g clip-path="url(#clip0_2288_876)">
<path fill-rule="evenodd" clip-rule="evenodd" d="M48 24.0586C48 37.3134 37.2548 48.0586 24 48.0586C10.7452 48.0586 0 37.3134 0 24.0586C0 10.8038 10.7452 0.0585938 24 0.0585938C37.2548 0.0585938 48 10.8038 48 24.0586ZM24 47.847C37.138 47.847 47.7884 37.1966 47.7884 24.0586C47.7884 10.9206 37.138 0.270187 24 0.270187C10.862 0.270187 0.211593 10.9206 0.211593 24.0586C0.211593 37.1966 10.862 47.847 24 47.847Z" fill="#0C2664"/>
<path d="M24.0315 47.8471H24.3587C37.3458 47.6721 47.8199 37.0897 47.8199 24.0609C47.8199 10.9672 37.2411 0.344305 24.1641 0.272904C24.1199 0.272477 24.0757 0.272266 24.0315 0.272266C17.0308 0.272266 11.3556 5.59726 11.3556 12.166C11.3556 18.7347 17.0307 24.0596 24.0313 24.0597C31.032 24.0597 36.7074 29.3847 36.7074 35.9534C36.7074 42.5222 31.0322 47.8471 24.0315 47.8471Z" fill="#0C2664"/>
<path fill-rule="evenodd" clip-rule="evenodd" d="M24.0663 29.3877C24.0819 29.3872 24.1204 29.3721 24.152 29.354C24.2327 29.3079 24.3125 29.314 24.3959 29.3726C24.4354 29.4002 24.5697 29.492 24.6945 29.5764C25.0189 29.7961 25.6758 30.2525 26.7447 31.0008C26.8659 31.0856 27.0218 31.1937 27.0913 31.2409C27.1607 31.2882 27.3726 31.4359 27.562 31.5693C27.7515 31.7026 27.9323 31.8289 27.9639 31.8499C27.9955 31.8709 28.0936 31.9399 28.182 32.0031C28.321 32.1025 28.8312 32.4601 29.2478 32.7501C29.3184 32.7992 29.4485 32.8898 29.5368 32.9515C29.6253 33.0132 29.8425 33.1641 30.0197 33.2869C30.1969 33.4098 30.4079 33.5569 30.4887 33.6137C30.8572 33.873 31.0959 34.0271 31.1301 34.0275C31.1876 34.0283 31.613 34.0922 31.7413 34.1194C31.8045 34.1328 31.9285 34.1563 32.0169 34.1718C32.0965 34.1857 32.1402 34.1897 32.1593 34.2135C32.1843 34.2447 32.1672 34.3097 32.1334 34.4748C32.1001 34.6378 32.0844 34.7002 32.1062 34.7438C32.1223 34.7759 32.1587 34.7978 32.2235 34.8421C32.2993 34.8939 32.5215 35.0452 32.7172 35.1783C32.913 35.3114 33.1507 35.4746 33.2454 35.5409C33.3401 35.6073 33.5003 35.717 33.6013 35.7848C33.7949 35.9146 34.7128 36.5456 34.8011 36.6095C34.8787 36.6657 34.8699 36.6789 34.6461 36.8425C34.5066 36.9445 34.4507 36.9813 34.4515 37.0168C34.452 37.0425 34.482 37.0674 34.5313 37.1155C34.579 37.1621 34.6095 37.187 34.6096 37.212C34.6098 37.2498 34.5408 37.2879 34.3572 37.4008C34.211 37.4908 34.0224 37.6189 33.9382 37.6855C33.854 37.7522 33.7437 37.8345 33.6932 37.8685C33.6427 37.9024 33.5755 37.9501 33.5439 37.9744C33.5123 37.9987 33.3832 38.0851 33.2569 38.1665C33.1306 38.2479 32.8722 38.415 32.6828 38.5379C32.1357 38.8931 31.9709 38.9996 31.5921 39.243C31.456 39.3305 31.366 39.3881 31.3075 39.4279C31.2478 39.7607 31.1726 40.1857 31.0964 40.6165C30.9444 41.4757 30.7884 42.3579 30.7427 42.5772C30.7413 42.6009 30.7327 42.6291 30.7187 42.6628C30.6792 42.7582 30.6093 42.7538 30.0306 42.6189C29.9232 42.5939 29.7527 42.5568 29.6517 42.5365C29.5506 42.5162 29.4215 42.4884 29.3646 42.4746C29.3078 42.461 29.2045 42.4418 29.135 42.4321C28.9564 42.407 28.5249 42.3201 28.3887 42.2817C28.1808 42.2232 27.6765 42.133 27.5569 42.133C27.4578 42.133 27.433 42.124 27.3973 42.0749C27.38 42.0512 27.3698 42.0372 27.3567 42.0336C27.3377 42.0284 27.3128 42.045 27.2518 42.0857C27.1951 42.1236 27.0432 42.2247 26.9143 42.3103C26.7854 42.3959 26.6325 42.4995 26.5745 42.5406C26.5164 42.5816 26.4615 42.6152 26.4525 42.6152C26.4434 42.6152 26.3189 42.6927 26.1758 42.7874C26.0327 42.8822 25.9106 42.9597 25.9044 42.9597C25.8983 42.9597 25.8492 42.9913 25.7953 43.03C25.7399 43.0698 25.6664 43.1012 25.626 43.1024C25.5514 43.1045 25.5436 43.0993 25.2198 42.8351C25.1188 42.7527 24.9999 42.6732 24.9557 42.6584C24.7723 42.5971 24.4797 42.3379 24.0161 41.8261C23.6483 41.42 23.3845 41.2362 23.0956 41.1852C23.0186 41.1715 22.8512 41.1339 22.5561 41.0637C22.3671 41.0188 22.0949 40.9607 21.9705 40.9388C21.9137 40.9288 21.7484 40.8877 21.6031 40.8475C21.4579 40.8073 21.2822 40.7659 21.2127 40.7555C20.9722 40.7194 20.6952 40.6654 20.5124 40.6189C20.4113 40.5932 20.2976 40.5721 20.2596 40.5718C20.2216 40.5717 20.1545 40.5607 20.1104 40.5474C20.0662 40.5342 19.9785 40.5134 19.9153 40.5014C19.6685 40.4541 18.9396 40.3025 18.882 40.2866C18.8079 40.266 18.3438 40.1557 18.1816 40.12C18.0995 40.102 17.991 40.0779 17.9405 40.0664C17.89 40.055 17.766 40.0298 17.6649 40.0105C17.4807 39.9753 17.4026 39.9588 17.1253 39.8971C16.9253 39.8525 16.7499 39.8158 16.5971 39.7866C16.4148 39.7516 16.1865 39.7012 16.0805 39.6725C16.0299 39.6588 15.937 39.6397 15.8738 39.6301C15.8107 39.6205 15.6815 39.5949 15.5868 39.5733C15.0887 39.4598 15.0076 39.443 14.7027 39.3914C14.6017 39.3743 14.4312 39.339 14.3238 39.313C14.2164 39.2869 14.0459 39.2479 13.9449 39.2263C13.8439 39.2047 13.7169 39.173 13.6628 39.1559C13.6087 39.1388 13.5312 39.1243 13.4906 39.1236C13.2593 39.1197 13.1558 39.0104 13.1548 38.7689C13.1547 38.7382 13.1539 38.7155 13.1567 38.6933C13.1667 38.6152 13.2218 38.5429 13.51 38.1472C13.7739 37.785 14.1714 37.2278 14.6391 36.5644C14.8744 36.2307 15.2194 35.7192 15.3801 35.4658C15.4622 35.3363 15.5659 35.1792 15.6106 35.1167C15.7025 34.9881 15.916 34.6494 16.2034 34.1763C16.355 33.9266 16.3995 33.8343 16.4022 33.7629C16.4041 33.7124 16.4137 33.6529 16.4236 33.6307C16.4453 33.5818 16.3925 33.5092 16.1635 33.2729C15.9169 33.0184 15.9499 32.9325 16.356 32.7715C16.597 32.676 16.7742 32.602 16.976 32.5126C17.2532 32.3899 17.3282 32.3581 17.3792 32.3038C17.4007 32.2809 17.4179 32.254 17.4442 32.2147C17.4914 32.1443 17.5577 32.0383 17.5917 31.9792C17.6721 31.8393 17.7181 31.7952 17.767 31.8107C17.7912 31.8183 17.8413 31.796 17.8941 31.7541C17.942 31.716 17.9876 31.6849 17.9953 31.685C18.0162 31.6854 18.4815 31.7727 18.5547 31.7901C18.6207 31.8056 18.7373 31.7664 19.0427 31.6258C19.1311 31.5851 19.2843 31.5146 19.3831 31.469C19.4819 31.4235 19.5664 31.3863 19.5709 31.3863C19.5755 31.3863 19.6496 31.3544 19.7357 31.3155C19.8219 31.2766 19.9285 31.2289 19.9727 31.2096C20.0169 31.1902 20.1254 31.1405 20.2138 31.0991C20.3022 31.0576 20.4986 30.9696 20.6501 30.9034C21.0313 30.737 21.16 30.6796 21.2931 30.6168C21.3563 30.5871 21.5061 30.5196 21.6261 30.4669C21.8786 30.3561 22.3275 30.1579 22.625 30.026C22.7386 29.9756 22.9143 29.8986 23.0153 29.855C23.2293 29.7626 23.5782 29.6046 23.8481 29.4777C23.9526 29.4286 24.0507 29.3881 24.0663 29.3877ZM24.5728 32.3046C24.5371 32.3045 24.4769 32.2839 24.439 32.2589C24.3153 32.1769 24.187 32.2214 24.2433 32.3268C24.2936 32.4207 24.2021 32.4537 24.1034 32.3771C23.9421 32.2519 23.6009 32.3371 23.6009 32.5026C23.6009 32.5913 23.5824 32.5957 23.4233 32.5455C23.3739 32.5299 23.3723 32.5341 23.3774 32.6633C23.3819 32.7773 23.3764 32.7987 23.3408 32.8057C23.2625 32.8212 23.1885 32.7866 23.153 32.718C23.0953 32.6063 23.0244 32.5723 22.9166 32.6046C22.8342 32.6293 22.8192 32.6269 22.754 32.5787C22.6628 32.5113 22.6093 32.5442 22.659 32.6371C22.686 32.6874 22.6847 32.7005 22.6489 32.74C22.5941 32.8005 22.6153 32.8442 22.7272 32.9013C22.7948 32.9357 22.8202 32.963 22.8202 33.001C22.8202 33.0994 22.7506 33.1226 22.6623 33.0538C22.6449 33.0403 22.602 33.0322 22.567 33.0359C22.5319 33.0396 22.4964 33.0316 22.4881 33.0181C22.4564 32.9668 22.4038 32.9924 22.4088 33.0568C22.4231 33.2394 22.3875 33.2681 22.2877 33.1544C22.1777 33.029 22.0512 33.0693 21.9463 33.263C21.8985 33.3512 21.8969 33.3639 21.9291 33.4008C22.0044 33.4872 21.8886 33.5338 21.7526 33.4718C21.6607 33.43 21.6028 33.4944 21.6574 33.5778C21.6807 33.6132 21.6905 33.658 21.6822 33.6909C21.6719 33.7319 21.6832 33.7569 21.7277 33.7919C21.7602 33.8175 21.7868 33.86 21.7868 33.8863C21.7868 33.9126 21.812 33.9506 21.8428 33.9708C21.8737 33.991 21.9021 34.0296 21.906 34.0565C21.9102 34.0853 21.9348 34.1106 21.9656 34.1179C21.9944 34.1248 22.0309 34.1562 22.0465 34.1878C22.0622 34.2193 22.0972 34.2484 22.1244 34.2523C22.1516 34.2562 22.1862 34.2743 22.2013 34.2925C22.237 34.3355 22.2899 34.3347 22.3066 34.2911C22.3139 34.2721 22.3297 34.2566 22.3417 34.2566C22.3538 34.2566 22.3584 34.2651 22.352 34.2754C22.3402 34.2945 22.3808 34.4285 22.4141 34.4805C22.4259 34.4989 22.4892 34.5092 22.5903 34.5092C22.7086 34.5092 22.7846 34.5244 22.8933 34.5695C22.973 34.6026 23.0745 34.6446 23.1187 34.6629C23.1629 34.6811 23.2197 34.705 23.245 34.716C23.2702 34.7269 23.3409 34.7571 23.402 34.7829C23.465 34.8096 23.518 34.8485 23.5244 34.8729C23.5427 34.9429 23.6773 34.9915 23.8529 34.9915C24.0331 34.9915 24.0603 34.9707 23.9926 34.8846C23.9461 34.8255 23.946 34.8224 23.9865 34.7528C24.0269 34.6834 24.129 34.6405 24.129 34.6929C24.129 34.8026 24.343 34.9475 24.4398 34.9034C24.4707 34.8894 24.5108 34.8836 24.529 34.8906C24.5472 34.8976 24.5964 34.8887 24.6384 34.8709C24.7833 34.8094 24.9507 34.7618 25.0222 34.7618C25.0679 34.7618 25.1084 34.7439 25.1339 34.7125C25.1784 34.6575 25.2163 34.6218 25.3379 34.5207C25.6095 34.2948 25.622 34.265 25.4839 34.1735C25.3537 34.0874 25.3832 34.0064 25.5455 34.0048C25.7947 34.0023 25.9794 33.7642 25.8621 33.5967C25.8232 33.5412 25.6996 33.4992 25.5746 33.499C25.5297 33.4989 25.4819 33.4877 25.4681 33.4739C25.4544 33.4603 25.4193 33.4525 25.39 33.4567C25.3083 33.4685 25.3036 33.7251 25.3836 33.8003C25.4661 33.8778 25.4102 33.9581 25.2738 33.9581C25.2472 33.9581 25.249 33.8807 25.2762 33.8535C25.3227 33.807 25.1257 33.6826 25.0056 33.6826C24.967 33.6826 24.9296 33.6731 24.9224 33.6614C24.9024 33.6291 25.0263 33.5422 25.0717 33.5566C25.1112 33.5692 25.1853 33.5154 25.1853 33.4743C25.1853 33.4625 25.2045 33.4529 25.228 33.4529C25.3548 33.4529 25.4649 32.992 25.3628 32.8889C25.2874 32.8128 25.2457 32.76 25.2192 32.7075C25.2063 32.6818 25.1738 32.6576 25.1469 32.6537C25.1201 32.6498 25.0929 32.6266 25.0865 32.602C25.0796 32.5757 25.0551 32.5574 25.0266 32.5574C25.0001 32.5574 24.9559 32.5315 24.9285 32.5C24.901 32.4684 24.8554 32.4426 24.827 32.4426C24.7987 32.4426 24.7445 32.4116 24.7067 32.3737C24.6627 32.3298 24.6142 32.3047 24.5728 32.3046ZM24.1668 32.5887C24.1752 32.5652 24.192 32.5331 24.2041 32.5174C24.2162 32.5018 24.2353 32.4947 24.2464 32.5016C24.2723 32.5175 24.2733 32.7705 24.2476 32.7996C24.2065 32.8465 24.1512 33.0366 24.1572 33.1107C24.1657 33.2156 23.8816 33.2417 23.8164 33.1421C23.7615 33.0583 23.7832 33.0064 23.8766 32.9978C23.9208 32.9937 23.9826 32.9666 24.0142 32.9374C24.0458 32.9083 24.0956 32.8722 24.1248 32.8571C24.1771 32.8302 24.1609 32.764 24.102 32.764C24.0646 32.764 23.9224 32.639 23.9224 32.6062C23.9224 32.575 23.9613 32.5773 24.1001 32.6168C24.1378 32.6276 24.1555 32.6201 24.1668 32.5887ZM23.1378 33.1314C23.0118 33.1314 22.9652 32.971 23.078 32.9257C23.2119 32.8719 23.3608 32.9372 23.3401 33.0406C23.3328 33.077 23.3368 33.1129 23.3491 33.1204C23.3865 33.1436 23.3737 33.2004 23.3311 33.1996C23.309 33.1992 23.2708 33.1837 23.2463 33.1652C23.2218 33.1466 23.173 33.1314 23.1378 33.1314ZM24.279 33.0166C24.2747 32.9724 24.2761 32.9283 24.2821 32.9187C24.3023 32.8859 24.338 32.9285 24.3311 32.9772C24.3263 33.0108 24.3394 33.0295 24.3741 33.0383C24.4888 33.0677 24.633 33.2692 24.5394 33.2692C24.5251 33.2692 24.4793 33.3054 24.4376 33.3495C24.3891 33.401 24.349 33.4248 24.3259 33.4159C24.2699 33.3945 24.2831 33.361 24.3577 33.335C24.4773 33.2933 24.4683 33.1314 24.3464 33.1314C24.3152 33.1314 24.2891 33.1237 24.2883 33.1142C24.2875 33.1048 24.2833 33.0608 24.279 33.0166ZM23.7846 33.4856C23.7846 33.4683 23.8389 33.4287 23.9051 33.3975C24.0673 33.3213 24.1129 33.3238 24.1874 33.4127C24.2218 33.4538 24.2692 33.4948 24.2928 33.5039C24.3427 33.523 24.3504 33.6031 24.3041 33.6209C24.2676 33.6349 24.2209 33.5957 24.2209 33.551C24.2209 33.495 24.1582 33.4953 24.0973 33.5518C24.0642 33.5824 24.0372 33.6192 24.0372 33.6335C24.0372 33.6479 24.0289 33.6596 24.0188 33.6596C23.9833 33.6596 23.9453 33.6039 23.9453 33.5517C23.9453 33.4951 23.9231 33.4844 23.8849 33.5226C23.8547 33.5528 23.7846 33.5269 23.7846 33.4856ZM22.1564 33.5116C22.2463 33.513 22.2726 33.4864 22.2541 33.4129C22.2281 33.3092 22.4088 33.3416 22.4585 33.4496C22.5326 33.6105 22.4683 33.6815 22.3186 33.6041C22.2799 33.5841 22.2056 33.5677 22.1534 33.5677C22.0876 33.5677 22.0615 33.559 22.0684 33.539C22.0738 33.5233 22.1134 33.5109 22.1564 33.5116ZM22.7352 33.5145C22.7799 33.5148 22.8352 33.4929 22.8765 33.4585C22.9943 33.3605 23.2648 33.4297 23.1958 33.5402C23.1473 33.6178 23.1372 33.7192 23.1748 33.7504C23.218 33.7863 23.2006 33.8203 23.1391 33.8203C23.1092 33.8203 23.0852 33.7972 23.0701 33.7536C23.0397 33.6667 22.9433 33.6268 22.8114 33.6465C22.6929 33.6643 22.5905 33.6439 22.5905 33.6025C22.5905 33.5546 22.6571 33.5142 22.7352 33.5145ZM22.8101 33.8741C22.7971 33.7973 22.802 33.7826 22.8479 33.76C22.9366 33.7164 22.9789 33.724 22.9946 33.7865C23.0237 33.9024 23.2064 33.9284 23.32 33.8328C23.3707 33.7901 23.3935 33.7828 23.4136 33.803C23.4596 33.849 23.443 33.8792 23.3483 33.9209C23.2517 33.9635 23.2274 34.0041 23.2985 34.0041C23.3589 34.0041 23.3732 34.0265 23.3455 34.0781C23.3289 34.1092 23.3063 34.1192 23.2729 34.1105C23.2462 34.1035 23.2111 34.1089 23.1948 34.1224C23.1627 34.149 23.0957 34.1334 23.0957 34.0993C23.0957 34.0878 23.1164 34.0729 23.1416 34.0663C23.219 34.0461 23.1928 34.0089 23.09 33.9929C23.0363 33.9846 22.9743 33.9726 22.9522 33.9664C22.8879 33.9482 22.9037 34.025 22.9694 34.05C23.001 34.062 23.0268 34.0876 23.0268 34.1068C23.0268 34.1463 22.991 34.1538 22.9694 34.1189C22.9475 34.0833 22.8661 34.0918 22.8661 34.1295C22.8661 34.1766 22.9557 34.2221 22.9869 34.1909C23.0036 34.1743 23.0246 34.1743 23.0557 34.1909C23.0804 34.2041 23.133 34.2092 23.1727 34.2022C23.25 34.1885 23.3256 34.233 23.3548 34.3092C23.3749 34.3619 23.315 34.3875 23.2662 34.3471C23.2363 34.3223 23.2216 34.3274 23.1737 34.379C23.1052 34.4528 23.0824 34.4553 23.0488 34.3927C22.9963 34.2945 22.9315 34.2478 22.8867 34.2757C22.8359 34.3074 22.8237 34.2895 22.8083 34.1614C22.8007 34.0974 22.78 34.0501 22.7509 34.03C22.7258 34.0126 22.7053 33.979 22.7053 33.9553C22.7053 33.9054 22.7144 33.9031 22.7781 33.9372C22.8223 33.9609 22.8241 33.9575 22.8101 33.8741ZM23.4697 34.1554C23.4986 34.1646 23.5244 34.1531 23.5468 34.1211C23.5833 34.0689 23.6909 34.0549 23.6956 34.1016C23.7035 34.1796 23.6933 34.2652 23.6746 34.2774C23.5386 34.3664 23.6694 34.6651 23.8152 34.5987C23.8617 34.5775 23.8844 34.5769 23.9037 34.5962C23.9506 34.6431 23.881 34.693 23.7688 34.693C23.7127 34.693 23.6474 34.7033 23.6237 34.716C23.5676 34.746 23.0554 34.6023 22.9694 34.5323C22.9568 34.522 22.9206 34.5101 22.889 34.5057C22.8406 34.499 22.8316 34.4856 22.8316 34.4193C22.8316 34.3175 22.8834 34.2999 22.9174 34.3902C22.9503 34.4774 23.0807 34.5041 23.222 34.4528C23.2725 34.4344 23.3307 34.4189 23.3512 34.4184C23.3718 34.4179 23.4024 34.4008 23.4192 34.3806C23.436 34.3603 23.4734 34.3347 23.5024 34.3237C23.5893 34.2907 23.5659 34.2439 23.4604 34.2397C23.4084 34.2376 23.3593 34.2294 23.3514 34.2214C23.326 34.1961 23.4245 34.1411 23.4697 34.1554ZM31.1471 36.5617C31.077 36.5793 30.5579 36.2147 30.5281 36.1269C30.5056 36.061 30.4942 36.0587 30.4261 36.1065C30.3547 36.1565 30.3613 36.2014 30.4715 36.4133C30.6025 36.6653 30.5911 36.6708 30.2127 36.5392C29.9808 36.4585 29.9236 36.4386 29.8759 36.4522C29.8603 36.4566 29.8457 36.4647 29.8263 36.4753C29.7367 36.5245 29.7291 36.5609 29.8058 36.5723C29.9051 36.587 30.3147 36.9516 30.3385 37.0465C30.3561 37.1165 30.3724 37.1176 30.477 37.0559C30.5768 36.997 30.5845 36.9433 30.4931 36.9433C30.4222 36.9433 30.2321 36.8129 30.1909 36.7359C30.1551 36.669 30.2024 36.6765 30.4828 36.7821C30.7929 36.899 30.8158 36.8884 30.7046 36.6795C30.5988 36.4807 30.5761 36.4152 30.613 36.4152C30.6575 36.4152 30.9101 36.6138 30.9354 36.6687C30.9631 36.7288 31.0012 36.7254 31.1103 36.6532C31.2123 36.5857 31.2303 36.5408 31.1471 36.5617ZM29.8178 37.4613C30.2393 37.3284 30.2166 36.9606 29.7746 36.7601C29.4877 36.6299 29.0891 36.804 29.0891 37.0594C29.0891 37.3116 29.5269 37.553 29.8178 37.4613ZM29.3498 37.2033C29.1901 37.0815 29.1749 36.9395 29.3135 36.8643C29.4936 36.7666 29.8708 36.9061 29.9758 37.1093C30.1131 37.3746 29.663 37.4422 29.3498 37.2033ZM29.0431 37.4195C28.9737 37.387 28.8781 37.3441 28.8307 37.3241C28.7834 37.3041 28.7111 37.2736 28.67 37.2563C28.5382 37.2007 28.4995 37.2588 28.5801 37.3911C28.7308 37.6383 28.8594 37.8913 28.8594 37.9403C28.8594 37.9842 28.7759 38.0304 28.7384 38.0073C28.6283 37.9395 28.2494 37.6131 28.2192 37.5601C28.1709 37.4752 28.1615 37.4765 27.9737 37.5939C27.8862 37.6487 27.7391 37.7373 27.6468 37.7909C27.4791 37.8884 27.4503 37.9354 27.5493 37.9499C27.6005 37.9574 27.7359 38.0588 27.9808 38.2732C28.0708 38.352 28.1012 38.3944 28.1014 38.4417C28.1017 38.5219 28.1323 38.5207 28.2681 38.4354C28.3943 38.3562 28.4116 38.2981 28.3091 38.2981C28.2618 38.2981 28.2068 38.2683 28.1291 38.2006C28.0675 38.1469 27.9587 38.0533 27.8872 37.9926C27.728 37.8573 27.8222 37.6781 28.0525 37.6781C28.1118 37.6781 28.5568 38.0548 28.585 38.1287C28.6122 38.2004 28.6582 38.1976 28.7749 38.1173C28.8277 38.081 28.9174 38.0252 28.9742 37.9932C29.0907 37.9279 29.1076 37.8768 29.0162 37.8662C28.9824 37.8623 28.9401 37.8365 28.9222 37.8088C28.8674 37.7243 28.7446 37.4979 28.7446 37.4813C28.7446 37.4291 29.2568 37.6494 29.2808 37.712C29.3006 37.7635 29.3654 37.7549 29.4644 37.6876C29.5084 37.6577 29.5345 37.641 29.5336 37.6259C29.5323 37.6049 29.4789 37.587 29.3487 37.5414C29.2501 37.5068 29.1126 37.4519 29.0431 37.4195ZM27.9676 38.5048C27.8735 38.5048 27.4273 38.1273 27.417 38.0391C27.4081 37.9624 27.3639 37.9595 27.2463 38.0276C27.1457 38.086 27.1381 38.12 27.2176 38.1562C27.2913 38.1898 27.3097 38.6426 27.2374 38.6426C27.1714 38.6426 26.9076 38.393 26.9076 38.3306C26.9076 38.2582 26.8588 38.259 26.7316 38.3336C26.6148 38.402 26.6066 38.432 26.6996 38.4506C26.8681 38.4843 27.3159 38.9576 27.2157 38.9961C27.1207 39.0325 27.063 39.017 26.7124 38.8605C26.0943 38.5847 26.086 38.5888 26.322 39.0542C26.409 39.2257 26.4713 39.3778 26.4713 39.4187C26.4713 39.5005 26.5604 39.5841 26.6476 39.5841C26.6983 39.5841 26.7017 39.5774 26.6882 39.505C26.6736 39.4273 26.6762 39.4242 26.8399 39.3193C27.0898 39.159 27.1036 39.1546 27.1968 39.2048C27.3012 39.261 27.3472 39.2258 27.2878 39.135C27.2718 39.1107 27.261 39.0957 27.2617 39.0812C27.263 39.0549 27.3025 39.0306 27.4185 38.9554C27.5604 38.8633 27.5827 38.8263 27.4959 38.8263C27.4117 38.8263 27.3947 38.786 27.377 38.5448C27.3616 38.3351 27.3633 38.3211 27.4039 38.3213C27.4588 38.3216 27.7529 38.5933 27.7619 38.6522C27.7724 38.7199 27.8068 38.718 27.9245 38.6434C28.0485 38.5648 28.0671 38.5048 27.9676 38.5048ZM26.6008 39.3015C26.5688 39.2892 26.4024 38.9868 26.4024 38.941C26.4024 38.8871 26.8603 39.078 26.8789 39.1397C26.8889 39.1728 26.6411 39.3169 26.6008 39.3015Z" fill="#0C2664"/>
</g>
<defs>
<clipPath id="clip0_2288_876">
<rect width="48" height="48" fill="white" transform="translate(0 0.0585938)"/>
</clipPath>
</defs>
</svg>
